<svg version="1.1" viewBox="0.0 0.0 792.9370078740158 792.9370078740158" fill="none" stroke="none" stroke-linecap="square" stroke-miterlimit="10" xmlns:xlink="http://www.w3.org/1999/xlink" xmlns="http://www.w3.org/2000/svg"><clipPath id="p.0"><path d="m0 0l792.937 0l0 792.937l-792.937 0l0 -792.937z" clip-rule="nonzero"/></clipPath><g clip-path="url(#p.0)"><path fill="#000000" fill-opacity="0.0" d="m0 0l792.937 0l0 792.937l-792.937 0z" fill-rule="evenodd"/><path fill="#212121" d="m1081.668 0.9370052l792.5984 0l0 792.0l-792.5984 0z" fill-rule="evenodd"/><path fill="#212121" d="m-903.6672 -767.92706l0 0c0 -214.71808 177.42773 -388.78143 396.29602 -388.78143l0 0c105.10428 0 205.90372 40.960815 280.22363 113.87146c74.31993 72.910645 116.072426 171.7987 116.072426 274.90997l0 0c0 214.71802 -177.4278 388.7814 -396.29608 388.7814l0 0c-218.86829 0 -396.29602 -174.06339 -396.29602 -388.7814z" fill-rule="evenodd"/><path stroke="#ff66cc" stroke-width="16.0" stroke-linejoin="round" stroke-linecap="butt" d="m-903.6672 -767.92706l0 0c0 -214.71808 177.42773 -388.78143 396.29602 -388.78143l0 0c105.10428 0 205.90372 40.960815 280.22363 113.87146c74.31993 72.910645 116.072426 171.7987 116.072426 274.90997l0 0c0 214.71802 -177.4278 388.7814 -396.29608 388.7814l0 0c-218.86829 0 -396.29602 -174.06339 -396.29602 -388.7814z" fill-rule="evenodd"/><path fill="#ffcc00" d="m-588.41626 -1064.1649l55.101685 0l0 -61.126587l51.870758 0l0 61.126587l55.101654 0l0 51.87079l-55.101654 0l0 61.126587l-51.870758 0l0 -61.126587l-55.101685 0z" fill-rule="evenodd"/><path fill="#ffcc00" d="m-587.9835 -527.1749l162.07407 0l0 55.727264l-162.07407 0z" fill-rule="evenodd"/><path fill="#ff66cc" d="m-825.6224 -807.3437l36.233154 -36.52881l39.184937 38.867737l39.184998 -38.867737l36.233093 36.52881l-38.88806 38.573303l38.88806 38.573303l-36.233093 36.52881l-39.184998 -38.867798l-39.184937 38.867798l-36.233154 -36.52881l38.88806 -38.573303z" fill-rule="evenodd"/><path fill="#ff66cc" d="m-286.84024 -846.1308l0 0c13.149597 0 23.809418 10.659851 23.809418 23.809448c0 13.149536 -10.659821 23.809387 -23.809418 23.809387c-13.149597 0 -23.809448 -10.659851 -23.809448 -23.809387c0 -13.149597 10.659851 -23.809448 23.809448 -23.809448zm0 154.72083c-13.149597 0 -23.809448 -10.659851 -23.809448 -23.809448c0 -13.149597 10.659851 -23.809448 23.809448 -23.809448c13.149597 0 23.809418 10.659851 23.809418 23.809448c0 13.149597 -10.659821 23.809448 -23.809418 23.809448zm-81.03705 -101.16986l162.07408 0l0 47.618896l-162.07408 0z" fill-rule="evenodd"/><path fill="#000000" fill-opacity="0.0" d="m-770.87494 -506.93854l526.9972 -517.2508" fill-rule="evenodd"/><path stroke="#ffcc00" stroke-width="4.0" stroke-linejoin="round" stroke-linecap="butt" d="m-770.87494 -506.93854l526.9972 -517.2508" fill-rule="evenodd"/><path fill="#000000" fill-opacity="0.0" d="m-770.87494 -1024.1763l526.9972 517.25085" fill-rule="evenodd"/><path stroke="#ff66cc" stroke-width="4.0" stroke-linejoin="round" stroke-linecap="butt" d="m-770.87494 -1024.1763l526.9972 517.25085" fill-rule="evenodd"/><path fill="#212121" d="m-903.90027 1221.633l0 0c0 -219.87048 177.53174 -398.11072 396.5283 -398.11072l0 0c105.16583 0 206.02432 41.943665 280.38782 116.60388c74.363464 74.66028 116.140434 175.92126 116.140434 281.50684l0 0c0 219.87048 -177.53177 398.11072 -396.52826 398.11072l0 0c-218.99655 0 -396.5283 -178.24023 -396.5283 -398.11072z" fill-rule="evenodd"/><path stroke="#00ffff" stroke-width="16.0" stroke-linejoin="round" stroke-linecap="butt" d="m-903.90027 1221.633l0 0c0 -219.87048 177.53174 -398.11072 396.5283 -398.11072l0 0c105.16583 0 206.02432 41.943665 280.38782 116.60388c74.363464 74.66028 116.140434 175.92126 116.140434 281.50684l0 0c0 219.87048 -177.53177 398.11072 -396.52826 398.11072l0 0c-218.99655 0 -396.5283 -178.24023 -396.5283 -398.11072z" fill-rule="evenodd"/><path fill="#00e5ff" d="m-178.26369 1216.7655l-262.6526 223.00134l32.399628 -145.41919l106.517395 -90.43713l-67.09851 -86.48682l25.381317 -113.918884z" fill-rule="evenodd"/><path stroke="#00ffff" stroke-width="1.0" stroke-linejoin="round" stroke-linecap="butt" d="m-178.26369 1216.7655l-262.6526 223.00134l32.399628 -145.41919l106.517395 -90.43713l-67.09851 -86.48682l25.381317 -113.918884z" fill-rule="evenodd"/><path fill="#69f0ae" d="m-817.6594 1205.5814l262.6526 -223.0014l-32.39966 145.41925l-106.517395 90.43713l67.09851 86.486694l-25.381287 113.91907z" fill-rule="evenodd"/><path stroke="#00ffff" stroke-width="1.0" stroke-linejoin="round" stroke-linecap="butt" d="m-817.6594 1205.5814l262.6526 -223.0014l-32.39966 145.41925l-106.517395 90.43713l67.09851 86.486694l-25.381287 113.91907z" fill-rule="evenodd"/><defs><radialGradient id="p.1" gradientUnits="userSpaceOnUse" gradientTransform="matrix(23.71614454847099 -10.326993806875352 10.326993806875352 23.71614454847099 0.0 0.0)" spreadMethod="pad" cx="-26.67787647029639" cy="27.891453363779487" fx="-26.67787647029639" fy="27.891453363779487" r="23.716144561767578"><stop offset="0.0" stop-color="#c1ffa2"/><stop offset="1.0" stop-color="#00ccff"/></radialGradient></defs><path fill="url(#p.1)" d="m-634.7535 1428.3625l223.41898 -462.35034l66.673004 -29.032227l-266.91235 552.3568z" fill-rule="evenodd"/><path stroke="#00ffff" stroke-width="1.0" stroke-linejoin="round" stroke-linecap="butt" d="m-634.7535 1428.3625l223.41898 -462.35034l66.673004 -29.032227l-266.91235 552.3568z" fill-rule="evenodd"/><defs><radialGradient id="p.2" gradientUnits="userSpaceOnUse" gradientTransform="matrix(33.47357759459881 0.0 0.0 33.47357759459881 0.0 0.0)" spreadMethod="pad" cx="50.625152990819736" cy="-34.77153938006666" fx="50.625152990819736" fy="-34.77153938006666" r="33.47357940673828"><stop offset="0.0" stop-color="#ffcc00"/><stop offset="1.0" stop-color="#ff66cc"/></radialGradient></defs><path fill="url(#p.2)" d="m902.0066 -767.9278l0 0c0 -218.70477 177.4292 -396.00006 396.2992 -396.00006l0 0c105.1051 0 205.90527 41.721313 280.22583 115.98572c74.32056 74.264465 116.073364 174.98859 116.073364 280.01434l0 0c0 218.70471 -177.4292 395.99997 -396.2992 395.99997l0 0c-218.87 0 -396.2992 -177.29526 -396.2992 -395.99997z" fill-rule="evenodd"/><path fill="#212121" d="m925.3189 -768.8097l0 0c0 -205.6413 166.9942 -372.34644 372.99213 -372.34644l0 0c98.923706 0 193.79565 39.229248 263.74524 109.05774c69.949585 69.82849 109.246826 164.53625 109.246826 263.2887l0 0c0 205.64124 -166.99426 372.34644 -372.99207 372.34644l0 0c-205.99792 0 -372.99213 -166.7052 -372.99213 -372.34644z" fill-rule="evenodd"/><path fill="#f4e7f3" d="m1185.6771 -598.68475l99.75 -190.625l-51.5625 -92.1875l-29.4375 0q-14.578125 0 -14.578125 -10.9375q0 -11.1875 14.578125 -11.1875l43.75 0l171.60938 304.9375l15.890625 0q14.578125 0 14.578125 10.9375q0 10.9375 -14.578125 10.9375l-64.0625 0q-14.578125 0 -14.578125 -10.9375q0 -10.9375 14.578125 -10.9375l21.625 0l-94.796875 -167.70312l-87.5 167.70312l22.390625 0q14.84375 0 14.84375 10.9375q0 10.9375 -14.84375 10.9375l-63.53125 0q-14.59375 0 -14.59375 -10.9375q0 -10.9375 14.59375 -10.9375l15.875 0z" fill-rule="nonzero"/><defs><radialGradient id="p.3" gradientUnits="userSpaceOnUse" gradientTransform="matrix(33.47357759459881 0.0 0.0 33.47357759459881 0.0 0.0)" spreadMethod="pad" cx="50.625192195949644" cy="24.665162582711858" fx="50.625192195949644" fy="24.665162582711858" r="33.47357940673828"><stop offset="0.0" stop-color="#c1ffa2"/><stop offset="1.0" stop-color="#00ccff"/></radialGradient></defs><path fill="url(#p.3)" d="m902.0079 1221.6312l0 0c0 -218.70477 177.42926 -396.0 396.29926 -396.0l0 0c105.1051 0 205.90527 41.721313 280.22583 115.98572c74.32056 74.264404 116.073364 174.98853 116.073364 280.01428l0 0c0 218.70471 -177.4292 396.0 -396.2992 396.0l0 0c-218.87 0 -396.29926 -177.29529 -396.29926 -396.0z" fill-rule="evenodd"/><path fill="#212121" d="m925.3123 1219.9594l0 0c0 -205.57172 166.92377 -372.22052 372.83466 -372.22052l0 0c98.88196 0 193.71387 39.216003 263.6339 109.020874c69.920044 69.80487 109.20068 164.48065 109.20068 263.19965l0 0c0 205.57166 -166.9237 372.22046 -372.8346 372.22046l0 0c-205.91089 0 -372.83466 -166.6488 -372.83466 -372.22046z" fill-rule="evenodd"/><path fill="#000000" fill-opacity="0.0" d="m925.2992 847.74146l745.6693 0l0 714.9607l-745.6693 0z" fill-rule="evenodd"/><path fill="#e7f4f3" d="m1187.537 1380.4249q0 31.203125 31.59375 31.203125q6.40625 0 10.796875 4.390625q4.40625 4.40625 4.40625 11.203125q0 6.796875 -4.40625 11.1875q-4.390625 4.40625 -10.796875 4.40625q-62.390625 0 -62.390625 -62.390625l0 -93.609375q0 -31.59375 -31.609375 -31.59375q-6.796875 0 -11.203125 -4.390625q-4.390625 -4.40625 -4.390625 -10.8125q0 -6.796875 4.390625 -11.1875q4.40625 -4.40625 11.203125 -4.40625q31.609375 0 31.609375 -31.609375l0 -93.59375q0 -62.796875 62.390625 -62.796875q6.40625 0 10.796875 4.609375q4.40625 4.59375 4.40625 11.390625q0 6.390625 -4.203125 10.796875q-4.203125 4.40625 -11.0 4.40625q-31.59375 0 -31.59375 31.59375l0 93.59375q0 29.203125 -15.609375 47.203125q15.609375 17.609375 15.609375 46.796875l0 93.609375zm221.1969 0q0 31.203125 -31.59375 31.203125q-6.40625 0 -10.8125 4.390625q-4.390625 4.40625 -4.390625 11.203125q0 6.796875 4.390625 11.1875q4.40625 4.40625 10.8125 4.40625q62.390625 0 62.390625 -62.390625l0 -93.609375q0 -31.59375 31.609375 -31.59375q6.796875 0 11.1875 -4.390625q4.40625 -4.40625 4.40625 -10.8125q0 -6.796875 -4.40625 -11.1875q-4.390625 -4.40625 -11.1875 -4.40625q-31.609375 0 -31.609375 -31.609375l0 -93.59375q0 -62.796875 -62.390625 -62.796875q-6.40625 0 -10.8125 4.609375q-4.390625 4.59375 -4.390625 11.390625q0 6.390625 4.203125 10.796875q4.203125 4.40625 11.0 4.40625q31.59375 0 31.59375 31.59375l0 93.59375q0 29.203125 15.609375 47.203125q-15.609375 17.609375 -15.609375 46.796875l0 93.609375z" fill-rule="nonzero"/><defs><radialGradient id="p.4" gradientUnits="userSpaceOnUse" gradientTransform="matrix(33.47357759459881 0.0 0.0 33.47357759459881 0.0 0.0)" spreadMethod="pad" cx="-3.3182045798299296" cy="0.013996231376339957" fx="-3.3182045798299296" fy="0.013996231376339957" r="33.47357940673828"><stop offset="0.0" stop-color="#00ccff"/><stop offset="1.0" stop-color="#ff66cc"/></radialGradient></defs><path fill="url(#p.4)" d="m-903.6706 396.4685l0 0c0 -218.70476 177.4292 -396.0 396.2992 -396.0l0 0c105.1051 0 205.90533 41.72131 280.2259 115.98571c74.32051 74.26441 116.07334 174.98856 116.07334 280.01428l0 0c0 218.70477 -177.4292 396.0 -396.29922 396.0l0 0c-218.87 0 -396.2992 -177.29523 -396.2992 -396.0z" fill-rule="evenodd"/><path fill="#212121" d="m-880.3583 395.5866l0 0c0 -205.64127 166.99426 -372.34644 372.99213 -372.34644l0 0c98.923676 0 193.79568 39.229244 263.74527 109.057755c69.949585 69.82851 109.24687 164.53629 109.24687 263.2887l0 0c0 205.6413 -166.99428 372.34644 -372.99213 372.34644l0 0c-205.99786 0 -372.99213 -166.70514 -372.99213 -372.34644z" fill-rule="evenodd"/><path fill="#000000" fill-opacity="0.0" d="m-507.37027 309.89227c102.79202 -246.81796 503.6808 0 0 317.3374c-503.68076 -317.3374 -102.79196 -564.1554 0 -317.3374z" fill-rule="evenodd"/><path stroke="#d9d2e9" stroke-width="24.0" stroke-linejoin="round" stroke-linecap="butt" d="m-507.37027 309.89227c102.79202 -246.81796 503.6808 0 0 317.3374c-503.68076 -317.3374 -102.79196 -564.1554 0 -317.3374z" fill-rule="evenodd"/><path fill="#000000" fill-opacity="0.0" d="m-681.26013 488.55212l0 -51.838593l100.2063 0l0 -51.838562" fill-rule="evenodd"/><path stroke="#d9d2e9" stroke-width="12.0" stroke-linejoin="round" stroke-linecap="butt" d="m-681.26013 488.55212l0 -51.838593l100.2063 0l0 -51.838562" fill-rule="evenodd"/><path fill="#000000" fill-opacity="0.0" d="m-386.39362 540.38324l-45.49527 0l0 -43.77481l-45.49527 0" fill-rule="evenodd"/><path stroke="#d9d2e9" stroke-width="12.0" stroke-linejoin="round" stroke-linecap="butt" d="m-386.39362 540.38324l-45.49527 0l0 -43.77481l-45.49527 0" fill-rule="evenodd"/><path fill="#000000" fill-opacity="0.0" d="m-331.1066 221.33034l0 43.206314l-18.431519 0l0 43.2063" fill-rule="evenodd"/><path stroke="#d9d2e9" stroke-width="16.0" stroke-linejoin="round" stroke-linecap="butt" d="m-331.1066 221.33034l0 43.206314l-18.431519 0l0 43.2063" fill-rule="evenodd"/><path fill="#000000" fill-opacity="0.0" d="m-690.4759 223.63428l0 51.255127l79.47089 0l0 51.255096" fill-rule="evenodd"/><path stroke="#d9d2e9" stroke-width="16.0" stroke-linejoin="round" stroke-linecap="butt" d="m-690.4759 223.63428l0 51.255127l79.47089 0l0 51.255096" fill-rule="evenodd"/><path fill="#000000" fill-opacity="0.0" d="m-314.98154 460.90738l0 -65.63229l-96.76535 0l0 -65.63229" fill-rule="evenodd"/><path stroke="#d9d2e9" stroke-width="16.0" stroke-linejoin="round" stroke-linecap="butt" d="m-314.98154 460.90738l0 -65.63229l-96.76535 0l0 -65.63229" fill-rule="evenodd"/><path fill="#000000" fill-opacity="0.0" d="m-566.07825 586.457l45.49524 0l0 -24.176392l45.4953 0" fill-rule="evenodd"/><path stroke="#d9d2e9" stroke-width="16.0" stroke-linejoin="round" stroke-linecap="butt" d="m-566.07825 586.457l45.49524 0l0 -24.176392l45.4953 0" fill-rule="evenodd"/><path fill="#000000" fill-opacity="0.0" d="m-620.2158 337.0957l0 0c0 -6.0481873 4.5078735 -10.951202 10.0685425 -10.951202l0 0c2.6703491 0 5.231262 1.1537781 7.119507 3.20755c1.8881836 2.0537415 2.9489746 4.839203 2.9489746 7.7436523l0 0c0 6.0481567 -4.5078125 10.951172 -10.068481 10.951172l0 0c-5.560669 0 -10.0685425 -4.903015 -10.0685425 -10.951172z" fill-rule="evenodd"/><path stroke="#d9d2e9" stroke-width="8.0" stroke-linejoin="round" stroke-linecap="butt" d="m-620.2158 337.0957l0 0c0 -6.0481873 4.5078735 -10.951202 10.0685425 -10.951202l0 0c2.6703491 0 5.231262 1.1537781 7.119507 3.20755c1.8881836 2.0537415 2.9489746 4.839203 2.9489746 7.7436523l0 0c0 6.0481567 -4.5078125 10.951172 -10.068481 10.951172l0 0c-5.560669 0 -10.0685425 -4.903015 -10.0685425 -10.951172z" fill-rule="evenodd"/><path fill="#000000" fill-opacity="0.0" d="m-591.1922 373.92377l0 0c0 -6.0481567 4.5078735 -10.951172 10.0685425 -10.951172l0 0c2.6703491 0 5.231262 1.1537781 7.119507 3.2075195c1.8881836 2.0537415 2.9489746 4.8392334 2.9489746 7.7436523l0 0c0 6.0481873 -4.5078125 10.951202 -10.068481 10.951202l0 0c-5.560669 0 -10.0685425 -4.903015 -10.0685425 -10.951202z" fill-rule="evenodd"/><path stroke="#d9d2e9" stroke-width="8.0" stroke-linejoin="round" stroke-linecap="butt" d="m-591.1922 373.92377l0 0c0 -6.0481567 4.5078735 -10.951172 10.0685425 -10.951172l0 0c2.6703491 0 5.231262 1.1537781 7.119507 3.2075195c1.8881836 2.0537415 2.9489746 4.8392334 2.9489746 7.7436523l0 0c0 6.0481873 -4.5078125 10.951202 -10.068481 10.951202l0 0c-5.560669 0 -10.0685425 -4.903015 -10.0685425 -10.951202z" fill-rule="evenodd"/><path fill="#000000" fill-opacity="0.0" d="m-421.64835 318.66418l0 0c0 -6.0481567 4.507843 -10.951172 10.068512 -10.951172l0 0c2.6703186 0 5.2312927 1.1537781 7.119507 3.2075195c1.8882141 2.0537415 2.9490051 4.8392334 2.9490051 7.7436523l0 0c0 6.0481873 -4.507843 10.951202 -10.068512 10.951202l0 0c-5.560669 0 -10.068512 -4.903015 -10.068512 -10.951202z" fill-rule="evenodd"/><path stroke="#d9d2e9" stroke-width="8.0" stroke-linejoin="round" stroke-linecap="butt" d="m-421.64835 318.66418l0 0c0 -6.0481567 4.507843 -10.951172 10.068512 -10.951172l0 0c2.6703186 0 5.2312927 1.1537781 7.119507 3.2075195c1.8882141 2.0537415 2.9490051 4.8392334 2.9490051 7.7436523l0 0c0 6.0481873 -4.507843 10.951202 -10.068512 10.951202l0 0c-5.560669 0 -10.068512 -4.903015 -10.068512 -10.951202z" fill-rule="evenodd"/><path fill="#000000" fill-opacity="0.0" d="m-497.52118 498.35382l0 0c0 -6.0481567 4.5078125 -10.951172 10.068512 -10.951172l0 0c2.6703186 0 5.2312927 1.1537781 7.119507 3.2075195c1.8882141 2.0537415 2.9490051 4.8392334 2.9490051 7.7436523l0 0c0 6.0481873 -4.507843 10.951202 -10.068512 10.951202l0 0c-5.5606995 0 -10.068512 -4.903015 -10.068512 -10.951202z" fill-rule="evenodd"/><path stroke="#d9d2e9" stroke-width="8.0" stroke-linejoin="round" stroke-linecap="butt" d="m-497.52118 498.35382l0 0c0 -6.0481567 4.5078125 -10.951172 10.068512 -10.951172l0 0c2.6703186 0 5.2312927 1.1537781 7.119507 3.2075195c1.8882141 2.0537415 2.9490051 4.8392334 2.9490051 7.7436523l0 0c0 6.0481873 -4.507843 10.951202 -10.068512 10.951202l0 0c-5.5606995 0 -10.068512 -4.903015 -10.068512 -10.951202z" fill-rule="evenodd"/><path fill="#000000" fill-opacity="0.0" d="m-475.0877 560.8793l0 0c0 -6.0481567 4.5078125 -10.951172 10.068512 -10.951172l0 0c2.6703186 0 5.2312927 1.1538086 7.119507 3.2075195c1.8882141 2.053772 2.9489746 4.8392334 2.9489746 7.7436523l0 0c0 6.0481567 -4.5078125 10.951172 -10.068481 10.951172l0 0c-5.5606995 0 -10.068512 -4.903015 -10.068512 -10.951172z" fill-rule="evenodd"/><path stroke="#d9d2e9" stroke-width="8.0" stroke-linejoin="round" stroke-linecap="butt" d="m-475.0877 560.8793l0 0c0 -6.0481567 4.5078125 -10.951172 10.068512 -10.951172l0 0c2.6703186 0 5.2312927 1.1538086 7.119507 3.2075195c1.8882141 2.053772 2.9489746 4.8392334 2.9489746 7.7436523l0 0c0 6.0481567 -4.5078125 10.951172 -10.068481 10.951172l0 0c-5.5606995 0 -10.068512 -4.903015 -10.068512 -10.951172z" fill-rule="evenodd"/><path fill="#000000" fill-opacity="0.0" d="m-359.3498 318.66418l0 0c0 -6.0481567 4.507843 -10.951172 10.068512 -10.951172l0 0c2.6703491 0 5.2312927 1.1537781 7.119507 3.2075195c1.8882141 2.0537415 2.9490051 4.8392334 2.9490051 7.7436523l0 0c0 6.0481873 -4.507843 10.951202 -10.068512 10.951202l0 0c-5.560669 0 -10.068512 -4.903015 -10.068512 -10.951202z" fill-rule="evenodd"/><path stroke="#d9d2e9" stroke-width="8.0" stroke-linejoin="round" stroke-linecap="butt" d="m-359.3498 318.66418l0 0c0 -6.0481567 4.507843 -10.951172 10.068512 -10.951172l0 0c2.6703491 0 5.2312927 1.1537781 7.119507 3.2075195c1.8882141 2.0537415 2.9490051 4.8392334 2.9490051 7.7436523l0 0c0 6.0481873 -4.507843 10.951202 -10.068512 10.951202l0 0c-5.560669 0 -10.068512 -4.903015 -10.068512 -10.951202z" fill-rule="evenodd"/><path fill="#000000" fill-opacity="0.0" d="m-507.6757 309.4285l0 57.31418l-15.798431 0l0 57.31418" fill-rule="evenodd"/><path stroke="#d9d2e9" stroke-width="12.0" stroke-linejoin="round" stroke-linecap="butt" d="m-507.6757 309.4285l0 57.31418l-15.798431 0l0 57.31418" fill-rule="evenodd"/><path fill="#000000" fill-opacity="0.0" d="m-533.2447 435.00803l0 0c0 -6.0481567 4.5078735 -10.951172 10.0685425 -10.951172l0 0c2.6703491 0 5.231262 1.1537781 7.119507 3.2075195c1.8881836 2.0537415 2.9489746 4.8392334 2.9489746 7.7436523l0 0c0 6.0481873 -4.5078125 10.951172 -10.068481 10.951172l0 0c-5.560669 0 -10.0685425 -4.9029846 -10.0685425 -10.951172z" fill-rule="evenodd"/><path stroke="#d9d2e9" stroke-width="8.0" stroke-linejoin="round" stroke-linecap="butt" d="m-533.2447 435.00803l0 0c0 -6.0481567 4.5078735 -10.951172 10.0685425 -10.951172l0 0c2.6703491 0 5.231262 1.1537781 7.119507 3.2075195c1.8881836 2.0537415 2.9489746 4.8392334 2.9489746 7.7436523l0 0c0 6.0481873 -4.5078125 10.951172 -10.068481 10.951172l0 0c-5.560669 0 -10.0685425 -4.9029846 -10.0685425 -10.951172z" fill-rule="evenodd"/><defs><radialGradient id="p.5" gradientUnits="userSpaceOnUse" gradientTransform="matrix(33.47357759459881 0.0 0.0 33.47357759459881 0.0 0.0)" spreadMethod="pad" cx="23.683348514483058" cy="0.013957026246434242" fx="23.683348514483058" fy="0.013957026246434242" r="33.47357940673828"><stop offset="0.0" stop-color="#351c75"/><stop offset="1.0" stop-color="#00ffff"/></radialGradient></defs><path fill="url(#p.5)" d="m0.167979 396.4672l0 0c0 -218.70476 177.4292 -396.0 396.29922 -396.0l0 0c105.10507 0 205.90536 41.72131 280.22586 115.98571c74.320496 74.26441 116.073364 174.98856 116.073364 280.01428l0 0c0 218.70474 -177.4292 395.99997 -396.29922 395.99997l0 0c-218.87001 0 -396.29922 -177.29523 -396.29922 -395.99997z" fill-rule="evenodd"/><path fill="#212121" d="m23.480314 395.5853l0 0c0 -205.64127 166.99426 -372.34644 372.99213 -372.34644l0 0c98.923676 0 193.79568 39.229244 263.74527 109.057755c69.949585 69.82851 109.246826 164.53629 109.246826 263.2887l0 0c0 205.64127 -166.99426 372.34647 -372.9921 372.34647l0 0c-205.99786 0 -372.99213 -166.7052 -372.99213 -372.34647z" fill-rule="evenodd"/><path fill="#000000" fill-opacity="0.0" d="m0.16929133 0.4671916l792.5984 0l0 792.0l-792.5984 0z" fill-rule="evenodd"/><path fill="#ffffff" d="m583.1893 209.31094l0 33.0625l-42.453125 7.296875l0 338.79684l-51.296906 0l-182.29688 -292.7031l-1.5625 0.515625l0 252.0781l42.453125 7.296875l0 32.8125l-136.20311 0l0 -32.8125l42.453125 -7.296875l0 -298.68747l-42.453125 -7.296875l0 -33.0625l42.453125 0l51.29686 0l182.29688 292.4375l1.5625 -0.515625l0 -251.5625l-42.453125 -7.296875l0 -33.0625l93.75003 0l42.453125 0z" fill-rule="nonzero"/></g></svg>