<svg version="1.1" viewBox="0.0 0.0 1536.1312335958005 863.9343832020998" fill="none" stroke="none" stroke-linecap="square" stroke-miterlimit="10" xmlns:xlink="http://www.w3.org/1999/xlink" xmlns="http://www.w3.org/2000/svg"><clipPath id="p.0"><path d="m0 0l1536.1312 0l0 863.9344l-1536.1312 0l0 -863.9344z" clip-rule="nonzero"/></clipPath><g clip-path="url(#p.0)"><path fill="#000000" fill-opacity="0.0" d="m0 0l1536.1312 0l0 863.9344l-1536.1312 0z" fill-rule="evenodd"/><path fill="#414141" d="m0 0l64.28346 54.70866l-64.28346 54.70866z" fill-rule="evenodd"/><path fill="#414141" d="m0 122.95276l64.28346 54.708664l-64.28346 54.70865z" fill-rule="evenodd"/><path fill="#414141" d="m0 245.90552l64.28346 54.70865l-64.28346 54.70868z" fill-rule="evenodd"/><path fill="#414141" d="m0 368.85828l64.28346 54.70865l-64.28346 54.70868z" fill-rule="evenodd"/><path fill="#414141" d="m0 491.81104l64.28346 54.70868l-64.28346 54.70862z" fill-rule="evenodd"/><path fill="#414141" d="m0 614.7638l64.28346 54.70862l-64.28346 54.70868z" fill-rule="evenodd"/><path fill="#414141" d="m0 737.71655l64.28346 54.70862l-64.28346 54.70868z" fill-rule="evenodd"/><path fill="#616161" d="m64.28346 61.11286l-64.28346 54.708664l64.28346 54.708656z" fill-rule="evenodd"/><path fill="#616161" d="m64.28346 184.06561l-64.28346 54.708664l64.28346 54.708664z" fill-rule="evenodd"/><path fill="#616161" d="m64.28346 307.01837l-64.28346 54.70865l64.28346 54.70868z" fill-rule="evenodd"/><path fill="#616161" d="m64.28346 429.97113l-64.28346 54.70865l64.28346 54.70865z" fill-rule="evenodd"/><path fill="#616161" d="m64.28346 552.9239l-64.28346 54.70868l64.28346 54.70862z" fill-rule="evenodd"/><path fill="#616161" d="m64.28346 675.87665l-64.28346 54.70868l64.28346 54.70862z" fill-rule="evenodd"/><path fill="#616161" d="m64.28346 798.8294l-64.28346 54.70868l64.28346 54.70862z" fill-rule="evenodd"/><path fill="#414141" d="m64.28346 61.11286l64.28346 54.708664l-64.28346 54.708656z" fill-rule="evenodd"/><path fill="#414141" d="m64.28346 184.06561l64.28346 54.708664l-64.28346 54.708664z" fill-rule="evenodd"/><path fill="#414141" d="m64.28346 307.01837l64.28346 54.70865l-64.28346 54.70868z" fill-rule="evenodd"/><path fill="#414141" d="m64.28346 429.97113l64.28346 54.70865l-64.28346 54.70865z" fill-rule="evenodd"/><path fill="#414141" d="m64.28346 552.9239l64.28346 54.70868l-64.28346 54.70862z" fill-rule="evenodd"/><path fill="#414141" d="m64.28346 675.87665l64.28346 54.70868l-64.28346 54.70862z" fill-rule="evenodd"/><path fill="#414141" d="m64.28346 798.8294l64.28346 54.70868l-64.28346 54.70862z" fill-rule="evenodd"/><path fill="#616161" d="m128.56693 122.22572l-64.28346 54.708664l64.28346 54.708664z" fill-rule="evenodd"/><path fill="#616161" d="m128.56693 245.17848l-64.28346 54.708664l64.28346 54.70865z" fill-rule="evenodd"/><path fill="#616161" d="m128.56693 368.13123l-64.28346 54.70868l64.28346 54.70865z" fill-rule="evenodd"/><path fill="#616161" d="m128.56693 491.08398l-64.28346 54.70868l64.28346 54.70868z" fill-rule="evenodd"/><path fill="#616161" d="m128.56693 614.03674l-64.28346 54.70868l64.28346 54.70862z" fill-rule="evenodd"/><path fill="#616161" d="m128.56693 736.9895l-64.28346 54.70868l64.28346 54.70862z" fill-rule="evenodd"/><path fill="#616161" d="m128.56693 859.94226l-64.28346 54.70868l64.28346 54.70862z" fill-rule="evenodd"/><path fill="#414141" d="m128.56693 122.95276l64.28346 54.708664l-64.28346 54.70865z" fill-rule="evenodd"/><path fill="#414141" d="m128.56693 245.90552l64.28346 54.70865l-64.28346 54.70868z" fill-rule="evenodd"/><path fill="#414141" d="m128.56693 368.85828l64.28346 54.70865l-64.28346 54.70868z" fill-rule="evenodd"/><path fill="#414141" d="m128.56693 491.81104l64.28346 54.70868l-64.28346 54.70862z" fill-rule="evenodd"/><path fill="#414141" d="m128.56693 614.7638l64.28346 54.70862l-64.28346 54.70868z" fill-rule="evenodd"/><path fill="#414141" d="m128.56693 737.71655l64.28346 54.70862l-64.28346 54.70868z" fill-rule="evenodd"/><path fill="#414141" d="m128.56693 860.6693l64.28346 54.70862l-64.28346 54.70868z" fill-rule="evenodd"/><path fill="#616161" d="m192.85039 184.06561l-64.28346 54.708664l64.28346 54.708664z" fill-rule="evenodd"/><path fill="#616161" d="m192.85039 307.01837l-64.28346 54.70865l64.28346 54.70868z" fill-rule="evenodd"/><path fill="#616161" d="m192.85039 429.97113l-64.28346 54.70865l64.28346 54.70865z" fill-rule="evenodd"/><path fill="#616161" d="m192.85039 552.9239l-64.28346 54.70868l64.28346 54.70862z" fill-rule="evenodd"/><path fill="#616161" d="m192.85039 675.87665l-64.28346 54.70868l64.28346 54.70862z" fill-rule="evenodd"/><path fill="#616161" d="m192.85039 798.8294l-64.28346 54.70868l64.28346 54.70862z" fill-rule="evenodd"/><path fill="#616161" d="m192.85039 921.78217l-64.28346 54.70862l64.28346 54.70868z" fill-rule="evenodd"/><path fill="#414141" d="m192.85039 184.06561l64.28346 54.708664l-64.28346 54.708664z" fill-rule="evenodd"/><path fill="#414141" d="m192.85039 307.01837l64.28346 54.70865l-64.28346 54.70868z" fill-rule="evenodd"/><path fill="#414141" d="m192.85039 429.97113l64.28346 54.70865l-64.28346 54.70865z" fill-rule="evenodd"/><path fill="#414141" d="m192.85039 552.9239l64.28346 54.70868l-64.28346 54.70862z" fill-rule="evenodd"/><path fill="#414141" d="m192.85039 675.87665l64.28346 54.70868l-64.28346 54.70862z" fill-rule="evenodd"/><path fill="#414141" d="m192.85039 798.8294l64.28346 54.70868l-64.28346 54.70862z" fill-rule="evenodd"/><path fill="#414141" d="m192.85039 921.78217l64.28346 54.70862l-64.28346 54.70868z" fill-rule="evenodd"/><path fill="#616161" d="m257.13385 245.17848l-64.28346 54.708664l64.28346 54.70865z" fill-rule="evenodd"/><path fill="#616161" d="m257.13385 368.13123l-64.28346 54.70868l64.28346 54.70865z" fill-rule="evenodd"/><path fill="#616161" d="m257.13385 491.08398l-64.28346 54.70868l64.28346 54.70868z" fill-rule="evenodd"/><path fill="#616161" d="m257.13385 614.03674l-64.28346 54.70868l64.28346 54.70862z" fill-rule="evenodd"/><path fill="#616161" d="m257.13385 736.9895l-64.28346 54.70868l64.28346 54.70862z" fill-rule="evenodd"/><path fill="#616161" d="m257.13385 859.94226l-64.28346 54.70868l64.28346 54.70862z" fill-rule="evenodd"/><path fill="#616161" d="m257.13385 982.895l-64.28346 54.70862l64.28346 54.70874z" fill-rule="evenodd"/><path fill="#414141" d="m257.13385 245.90552l64.28348 54.70865l-64.28348 54.70868z" fill-rule="evenodd"/><path fill="#414141" d="m257.13385 368.85828l64.28348 54.70865l-64.28348 54.70868z" fill-rule="evenodd"/><path fill="#414141" d="m257.13385 491.81104l64.28348 54.70868l-64.28348 54.70862z" fill-rule="evenodd"/><path fill="#414141" d="m257.13385 614.7638l64.28348 54.70862l-64.28348 54.70868z" fill-rule="evenodd"/><path fill="#414141" d="m257.13385 737.71655l64.28348 54.70862l-64.28348 54.70868z" fill-rule="evenodd"/><path fill="#414141" d="m257.13385 860.6693l64.28348 54.70862l-64.28348 54.70868z" fill-rule="evenodd"/><path fill="#414141" d="m257.13385 983.6221l64.28348 54.70862l-64.28348 54.70874z" fill-rule="evenodd"/><path fill="#616161" d="m321.41733 307.01837l-64.28348 54.70865l64.28348 54.70868z" fill-rule="evenodd"/><path fill="#616161" d="m321.41733 429.97113l-64.28348 54.70865l64.28348 54.70865z" fill-rule="evenodd"/><path fill="#616161" d="m321.41733 552.9239l-64.28348 54.70868l64.28348 54.70862z" fill-rule="evenodd"/><path fill="#616161" d="m321.41733 675.87665l-64.28348 54.70868l64.28348 54.70862z" fill-rule="evenodd"/><path fill="#616161" d="m321.41733 798.8294l-64.28348 54.70868l64.28348 54.70862z" fill-rule="evenodd"/><path fill="#616161" d="m321.41733 921.78217l-64.28348 54.70862l64.28348 54.70868z" fill-rule="evenodd"/><path fill="#616161" d="m321.41733 1044.7349l-64.28348 54.70874l64.28348 54.70862z" fill-rule="evenodd"/><path fill="#414141" d="m321.41733 307.01837l64.28345 54.70865l-64.28345 54.70868z" fill-rule="evenodd"/><path fill="#414141" d="m321.41733 429.97113l64.28345 54.70865l-64.28345 54.70865z" fill-rule="evenodd"/><path fill="#414141" d="m321.41733 552.9239l64.28345 54.70868l-64.28345 54.70862z" fill-rule="evenodd"/><path fill="#414141" d="m321.41733 675.87665l64.28345 54.70868l-64.28345 54.70862z" fill-rule="evenodd"/><path fill="#414141" d="m321.41733 798.8294l64.28345 54.70868l-64.28345 54.70862z" fill-rule="evenodd"/><path fill="#414141" d="m321.41733 921.78217l64.28345 54.70862l-64.28345 54.70868z" fill-rule="evenodd"/><path fill="#414141" d="m321.41733 1044.7349l64.28345 54.70874l-64.28345 54.70862z" fill-rule="evenodd"/><path fill="#616161" d="m385.70078 368.13123l-64.28345 54.70868l64.28345 54.70865z" fill-rule="evenodd"/><path fill="#616161" d="m385.70078 491.08398l-64.28345 54.70868l64.28345 54.70868z" fill-rule="evenodd"/><path fill="#616161" d="m385.70078 614.03674l-64.28345 54.70868l64.28345 54.70862z" fill-rule="evenodd"/><path fill="#616161" d="m385.70078 736.9895l-64.28345 54.70868l64.28345 54.70862z" fill-rule="evenodd"/><path fill="#616161" d="m385.70078 859.94226l-64.28345 54.70868l64.28345 54.70862z" fill-rule="evenodd"/><path fill="#616161" d="m385.70078 982.895l-64.28345 54.70862l64.28345 54.70874z" fill-rule="evenodd"/><path fill="#616161" d="m385.70078 1105.8478l-64.28345 54.70862l64.28345 54.70874z" fill-rule="evenodd"/><path fill="#414141" d="m385.70078 368.85828l64.28348 54.70865l-64.28348 54.70868z" fill-rule="evenodd"/><path fill="#414141" d="m385.70078 491.81104l64.28348 54.70868l-64.28348 54.70862z" fill-rule="evenodd"/><path fill="#414141" d="m385.70078 614.7638l64.28348 54.70862l-64.28348 54.70868z" fill-rule="evenodd"/><path fill="#414141" d="m385.70078 737.71655l64.28348 54.70862l-64.28348 54.70868z" fill-rule="evenodd"/><path fill="#414141" d="m385.70078 860.6693l64.28348 54.70862l-64.28348 54.70868z" fill-rule="evenodd"/><path fill="#414141" d="m385.70078 983.6221l64.28348 54.70862l-64.28348 54.70874z" fill-rule="evenodd"/><path fill="#414141" d="m385.70078 1106.5748l64.28348 54.70862l-64.28348 54.70862z" fill-rule="evenodd"/><path fill="#616161" d="m449.98425 429.97113l-64.28348 54.70865l64.28348 54.70865z" fill-rule="evenodd"/><path fill="#616161" d="m449.98425 552.9239l-64.28348 54.70868l64.28348 54.70862z" fill-rule="evenodd"/><path fill="#616161" d="m449.98425 675.87665l-64.28348 54.70868l64.28348 54.70862z" fill-rule="evenodd"/><path fill="#616161" d="m449.98425 798.8294l-64.28348 54.70868l64.28348 54.70862z" fill-rule="evenodd"/><path fill="#616161" d="m449.98425 921.78217l-64.28348 54.70862l64.28348 54.70868z" fill-rule="evenodd"/><path fill="#616161" d="m449.98425 1044.7349l-64.28348 54.70874l64.28348 54.70862z" fill-rule="evenodd"/><path fill="#616161" d="m449.98425 1167.6876l-64.28348 54.70874l64.28348 54.70862z" fill-rule="evenodd"/><path fill="#414141" d="m449.98425 429.97113l64.28345 54.70865l-64.28345 54.70865z" fill-rule="evenodd"/><path fill="#414141" d="m449.98425 552.9239l64.28345 54.70868l-64.28345 54.70862z" fill-rule="evenodd"/><path fill="#414141" d="m449.98425 675.87665l64.28345 54.70868l-64.28345 54.70862z" fill-rule="evenodd"/><path fill="#414141" d="m449.98425 798.8294l64.28345 54.70868l-64.28345 54.70862z" fill-rule="evenodd"/><path fill="#414141" d="m449.98425 921.78217l64.28345 54.70862l-64.28345 54.70868z" fill-rule="evenodd"/><path fill="#414141" d="m449.98425 1044.7349l64.28345 54.70874l-64.28345 54.70862z" fill-rule="evenodd"/><path fill="#414141" d="m449.98425 1167.6876l64.28345 54.70874l-64.28345 54.70862z" fill-rule="evenodd"/><path fill="#616161" d="m514.2677 491.08398l-64.28345 54.70868l64.28345 54.70868z" fill-rule="evenodd"/><path fill="#616161" d="m514.2677 614.03674l-64.28345 54.70868l64.28345 54.70862z" fill-rule="evenodd"/><path fill="#616161" d="m514.2677 736.9895l-64.28345 54.70868l64.28345 54.70862z" fill-rule="evenodd"/><path fill="#616161" d="m514.2677 859.94226l-64.28345 54.70868l64.28345 54.70862z" fill-rule="evenodd"/><path fill="#616161" d="m514.2677 982.895l-64.28345 54.70862l64.28345 54.70874z" fill-rule="evenodd"/><path fill="#616161" d="m514.2677 1105.8478l-64.28345 54.70862l64.28345 54.70874z" fill-rule="evenodd"/><path fill="#616161" d="m514.2677 1228.8005l-64.28345 54.70862l64.28345 54.70874z" fill-rule="evenodd"/><path fill="#414141" d="m514.2677 491.81104l64.28351 54.70868l-64.28351 54.70862z" fill-rule="evenodd"/><path fill="#414141" d="m514.2677 614.7638l64.28351 54.70862l-64.28351 54.70868z" fill-rule="evenodd"/><path fill="#414141" d="m514.2677 737.71655l64.28351 54.70862l-64.28351 54.70868z" fill-rule="evenodd"/><path fill="#414141" d="m514.2677 860.6693l64.28351 54.70862l-64.28351 54.70868z" fill-rule="evenodd"/><path fill="#414141" d="m514.2677 983.6221l64.28351 54.70862l-64.28351 54.70874z" fill-rule="evenodd"/><path fill="#414141" d="m514.2677 1106.5748l64.28351 54.70862l-64.28351 54.70862z" fill-rule="evenodd"/><path fill="#414141" d="m514.2677 1229.5276l64.28351 54.70862l-64.28351 54.70862z" fill-rule="evenodd"/><path fill="#616161" d="m578.5512 552.9239l-64.28351 54.70868l64.28351 54.70862z" fill-rule="evenodd"/><path fill="#616161" d="m578.5512 675.87665l-64.28351 54.70868l64.28351 54.70862z" fill-rule="evenodd"/><path fill="#616161" d="m578.5512 798.8294l-64.28351 54.70868l64.28351 54.70862z" fill-rule="evenodd"/><path fill="#616161" d="m578.5512 921.78217l-64.28351 54.70862l64.28351 54.70868z" fill-rule="evenodd"/><path fill="#616161" d="m578.5512 1044.7349l-64.28351 54.70874l64.28351 54.70862z" fill-rule="evenodd"/><path fill="#616161" d="m578.5512 1167.6876l-64.28351 54.70874l64.28351 54.70862z" fill-rule="evenodd"/><path fill="#616161" d="m578.5512 1290.6404l-64.28351 54.70874l64.28351 54.70862z" fill-rule="evenodd"/><path fill="#414141" d="m578.5512 552.9239l64.28345 54.70868l-64.28345 54.70862z" fill-rule="evenodd"/><path fill="#414141" d="m578.5512 675.87665l64.28345 54.70868l-64.28345 54.70862z" fill-rule="evenodd"/><path fill="#414141" d="m578.5512 798.8294l64.28345 54.70868l-64.28345 54.70862z" fill-rule="evenodd"/><path fill="#414141" d="m578.5512 921.78217l64.28345 54.70862l-64.28345 54.70868z" fill-rule="evenodd"/><path fill="#414141" d="m578.5512 1044.7349l64.28345 54.70874l-64.28345 54.70862z" fill-rule="evenodd"/><path fill="#414141" d="m578.5512 1167.6876l64.28345 54.70874l-64.28345 54.70862z" fill-rule="evenodd"/><path fill="#414141" d="m578.5512 1290.6404l64.28345 54.70874l-64.28345 54.70862z" fill-rule="evenodd"/><path fill="#616161" d="m642.83466 614.03674l-64.28345 54.70868l64.28345 54.70862z" fill-rule="evenodd"/><path fill="#616161" d="m642.83466 736.9895l-64.28345 54.70868l64.28345 54.70862z" fill-rule="evenodd"/><path fill="#616161" d="m642.83466 859.94226l-64.28345 54.70868l64.28345 54.70862z" fill-rule="evenodd"/><path fill="#616161" d="m642.83466 982.895l-64.28345 54.70862l64.28345 54.70874z" fill-rule="evenodd"/><path fill="#616161" d="m642.83466 1105.8478l-64.28345 54.70862l64.28345 54.70874z" fill-rule="evenodd"/><path fill="#616161" d="m642.83466 1228.8005l-64.28345 54.70862l64.28345 54.70874z" fill-rule="evenodd"/><path fill="#616161" d="m642.83466 1351.7533l-64.28345 54.70862l64.28345 54.70874z" fill-rule="evenodd"/><path fill="#414141" d="m642.83466 614.7638l64.28345 54.70862l-64.28345 54.70868z" fill-rule="evenodd"/><path fill="#414141" d="m642.83466 737.71655l64.28345 54.70862l-64.28345 54.70868z" fill-rule="evenodd"/><path fill="#414141" d="m642.83466 860.6693l64.28345 54.70862l-64.28345 54.70868z" fill-rule="evenodd"/><path fill="#414141" d="m642.83466 983.6221l64.28345 54.70862l-64.28345 54.70874z" fill-rule="evenodd"/><path fill="#414141" d="m642.83466 1106.5748l64.28345 54.70862l-64.28345 54.70862z" fill-rule="evenodd"/><path fill="#414141" d="m642.83466 1229.5276l64.28345 54.70862l-64.28345 54.70862z" fill-rule="evenodd"/><path fill="#414141" d="m642.83466 1352.4803l64.28345 54.70862l-64.28345 54.70862z" fill-rule="evenodd"/><path fill="#616161" d="m707.1181 675.87665l-64.28345 54.70868l64.28345 54.70862z" fill-rule="evenodd"/><path fill="#616161" d="m707.1181 798.8294l-64.28345 54.70868l64.28345 54.70862z" fill-rule="evenodd"/><path fill="#616161" d="m707.1181 921.78217l-64.28345 54.70862l64.28345 54.70868z" fill-rule="evenodd"/><path fill="#616161" d="m707.1181 1044.7349l-64.28345 54.70874l64.28345 54.70862z" fill-rule="evenodd"/><path fill="#616161" d="m707.1181 1167.6876l-64.28345 54.70874l64.28345 54.70862z" fill-rule="evenodd"/><path fill="#616161" d="m707.1181 1290.6404l-64.28345 54.70874l64.28345 54.70862z" fill-rule="evenodd"/><path fill="#616161" d="m707.1181 1413.5931l-64.28345 54.70874l64.28345 54.70862z" fill-rule="evenodd"/><path fill="#414141" d="m707.1181 675.87665l64.28345 54.70868l-64.28345 54.70862z" fill-rule="evenodd"/><path fill="#414141" d="m707.1181 798.8294l64.28345 54.70868l-64.28345 54.70862z" fill-rule="evenodd"/><path fill="#414141" d="m707.1181 921.78217l64.28345 54.70862l-64.28345 54.70868z" fill-rule="evenodd"/><path fill="#414141" d="m707.1181 1044.7349l64.28345 54.70874l-64.28345 54.70862z" fill-rule="evenodd"/><path fill="#414141" d="m707.1181 1167.6876l64.28345 54.70874l-64.28345 54.70862z" fill-rule="evenodd"/><path fill="#414141" d="m707.1181 1290.6404l64.28345 54.70874l-64.28345 54.70862z" fill-rule="evenodd"/><path fill="#414141" d="m707.1181 1413.5931l64.28345 54.70874l-64.28345 54.70862z" fill-rule="evenodd"/><path fill="#616161" d="m771.40155 736.9895l-64.28345 54.70868l64.28345 54.70862z" fill-rule="evenodd"/><path fill="#616161" d="m771.40155 859.94226l-64.28345 54.70868l64.28345 54.70862z" fill-rule="evenodd"/><path fill="#616161" d="m771.40155 982.895l-64.28345 54.70862l64.28345 54.70874z" fill-rule="evenodd"/><path fill="#616161" d="m771.40155 1105.8478l-64.28345 54.70862l64.28345 54.70874z" fill-rule="evenodd"/><path fill="#616161" d="m771.40155 1228.8005l-64.28345 54.70862l64.28345 54.70874z" fill-rule="evenodd"/><path fill="#616161" d="m771.40155 1351.7533l-64.28345 54.70862l64.28345 54.70874z" fill-rule="evenodd"/><path fill="#616161" d="m771.40155 1474.706l-64.28345 54.70862l64.28345 54.70874z" fill-rule="evenodd"/><path fill="#414141" d="m642.83466 -245.90552l64.28345 54.708664l-64.28345 54.708664z" fill-rule="evenodd"/><path fill="#414141" d="m642.83466 -122.95276l64.28345 54.708664l-64.28345 54.708664z" fill-rule="evenodd"/><path fill="#414141" d="m642.83466 0l64.28345 54.70866l-64.28345 54.70866z" fill-rule="evenodd"/><path fill="#414141" d="m642.83466 122.95276l64.28345 54.708664l-64.28345 54.70865z" fill-rule="evenodd"/><path fill="#414141" d="m642.83466 245.90552l64.28345 54.70865l-64.28345 54.70868z" fill-rule="evenodd"/><path fill="#414141" d="m642.83466 368.85828l64.28345 54.70865l-64.28345 54.70868z" fill-rule="evenodd"/><path fill="#414141" d="m642.83466 491.81104l64.28345 54.70868l-64.28345 54.70862z" fill-rule="evenodd"/><path fill="#616161" d="m707.1181 -184.79265l-64.28345 54.708664l64.28345 54.708656z" fill-rule="evenodd"/><path fill="#616161" d="m707.1181 -61.839893l-64.28345 54.70866l64.28345 54.70866z" fill-rule="evenodd"/><path fill="#616161" d="m707.1181 61.11286l-64.28345 54.708664l64.28345 54.708656z" fill-rule="evenodd"/><path fill="#616161" d="m707.1181 184.06561l-64.28345 54.708664l64.28345 54.708664z" fill-rule="evenodd"/><path fill="#616161" d="m707.1181 307.01837l-64.28345 54.70865l64.28345 54.70868z" fill-rule="evenodd"/><path fill="#616161" d="m707.1181 429.97113l-64.28345 54.70865l64.28345 54.70865z" fill-rule="evenodd"/><path fill="#616161" d="m707.1181 552.9239l-64.28345 54.70868l64.28345 54.70862z" fill-rule="evenodd"/><path fill="#414141" d="m707.1181 -184.79265l64.28345 54.708664l-64.28345 54.708656z" fill-rule="evenodd"/><path fill="#414141" d="m707.1181 -61.839893l64.28345 54.70866l-64.28345 54.70866z" fill-rule="evenodd"/><path fill="#414141" d="m707.1181 61.11286l64.28345 54.708664l-64.28345 54.708656z" fill-rule="evenodd"/><path fill="#414141" d="m707.1181 184.06561l64.28345 54.708664l-64.28345 54.708664z" fill-rule="evenodd"/><path fill="#414141" d="m707.1181 307.01837l64.28345 54.70865l-64.28345 54.70868z" fill-rule="evenodd"/><path fill="#414141" d="m707.1181 429.97113l64.28345 54.70865l-64.28345 54.70865z" fill-rule="evenodd"/><path fill="#414141" d="m707.1181 552.9239l64.28345 54.70868l-64.28345 54.70862z" fill-rule="evenodd"/><path fill="#616161" d="m771.40155 -123.67979l-64.28345 54.708656l64.28345 54.708664z" fill-rule="evenodd"/><path fill="#616161" d="m771.40155 -0.7270341l-64.28345 54.708664l64.28345 54.708664z" fill-rule="evenodd"/><path fill="#616161" d="m771.40155 122.22572l-64.28345 54.708664l64.28345 54.708664z" fill-rule="evenodd"/><path fill="#616161" d="m771.40155 245.17848l-64.28345 54.708664l64.28345 54.70865z" fill-rule="evenodd"/><path fill="#616161" d="m771.40155 368.13123l-64.28345 54.70868l64.28345 54.70865z" fill-rule="evenodd"/><path fill="#616161" d="m771.40155 491.08398l-64.28345 54.70868l64.28345 54.70868z" fill-rule="evenodd"/><path fill="#616161" d="m771.40155 614.03674l-64.28345 54.70868l64.28345 54.70862z" fill-rule="evenodd"/><path fill="#414141" d="m514.2677 -368.85828l64.28351 54.70868l-64.28351 54.70865z" fill-rule="evenodd"/><path fill="#414141" d="m514.2677 -245.90552l64.28351 54.708664l-64.28351 54.708664z" fill-rule="evenodd"/><path fill="#414141" d="m514.2677 -122.95276l64.28351 54.708664l-64.28351 54.708664z" fill-rule="evenodd"/><path fill="#414141" d="m514.2677 0l64.28351 54.70866l-64.28351 54.70866z" fill-rule="evenodd"/><path fill="#414141" d="m514.2677 122.95276l64.28351 54.708664l-64.28351 54.70865z" fill-rule="evenodd"/><path fill="#414141" d="m514.2677 245.90552l64.28351 54.70865l-64.28351 54.70868z" fill-rule="evenodd"/><path fill="#414141" d="m514.2677 368.85828l64.28351 54.70865l-64.28351 54.70868z" fill-rule="evenodd"/><path fill="#616161" d="m578.5512 -307.7454l-64.28351 54.70865l64.28351 54.708664z" fill-rule="evenodd"/><path fill="#616161" d="m578.5512 -184.79265l-64.28351 54.708664l64.28351 54.708656z" fill-rule="evenodd"/><path fill="#616161" d="m578.5512 -61.839893l-64.28351 54.70866l64.28351 54.70866z" fill-rule="evenodd"/><path fill="#616161" d="m578.5512 61.11286l-64.28351 54.708664l64.28351 54.708656z" fill-rule="evenodd"/><path fill="#616161" d="m578.5512 184.06561l-64.28351 54.708664l64.28351 54.708664z" fill-rule="evenodd"/><path fill="#616161" d="m578.5512 307.01837l-64.28351 54.70865l64.28351 54.70868z" fill-rule="evenodd"/><path fill="#616161" d="m578.5512 429.97113l-64.28351 54.70865l64.28351 54.70865z" fill-rule="evenodd"/><path fill="#414141" d="m578.5512 -307.7454l64.28345 54.70865l-64.28345 54.708664z" fill-rule="evenodd"/><path fill="#414141" d="m578.5512 -184.79265l64.28345 54.708664l-64.28345 54.708656z" fill-rule="evenodd"/><path fill="#414141" d="m578.5512 -61.839893l64.28345 54.70866l-64.28345 54.70866z" fill-rule="evenodd"/><path fill="#414141" d="m578.5512 61.11286l64.28345 54.708664l-64.28345 54.708656z" fill-rule="evenodd"/><path fill="#414141" d="m578.5512 184.06561l64.28345 54.708664l-64.28345 54.708664z" fill-rule="evenodd"/><path fill="#414141" d="m578.5512 307.01837l64.28345 54.70865l-64.28345 54.70868z" fill-rule="evenodd"/><path fill="#414141" d="m578.5512 429.97113l64.28345 54.70865l-64.28345 54.70865z" fill-rule="evenodd"/><path fill="#616161" d="m642.83466 -246.63255l-64.28345 54.708664l64.28345 54.708664z" fill-rule="evenodd"/><path fill="#616161" d="m642.83466 -123.67979l-64.28345 54.708656l64.28345 54.708664z" fill-rule="evenodd"/><path fill="#616161" d="m642.83466 -0.7270341l-64.28345 54.708664l64.28345 54.708664z" fill-rule="evenodd"/><path fill="#616161" d="m642.83466 122.22572l-64.28345 54.708664l64.28345 54.708664z" fill-rule="evenodd"/><path fill="#616161" d="m642.83466 245.17848l-64.28345 54.708664l64.28345 54.70865z" fill-rule="evenodd"/><path fill="#616161" d="m642.83466 368.13123l-64.28345 54.70868l64.28345 54.70865z" fill-rule="evenodd"/><path fill="#616161" d="m642.83466 491.08398l-64.28345 54.70868l64.28345 54.70868z" fill-rule="evenodd"/><path fill="#414141" d="m385.70078 -491.81104l64.28348 54.70868l-64.28348 54.70865z" fill-rule="evenodd"/><path fill="#414141" d="m385.70078 -368.85828l64.28348 54.70868l-64.28348 54.70865z" fill-rule="evenodd"/><path fill="#414141" d="m385.70078 -245.90552l64.28348 54.708664l-64.28348 54.708664z" fill-rule="evenodd"/><path fill="#414141" d="m385.70078 -122.95276l64.28348 54.708664l-64.28348 54.708664z" fill-rule="evenodd"/><path fill="#414141" d="m385.70078 0l64.28348 54.70866l-64.28348 54.70866z" fill-rule="evenodd"/><path fill="#414141" d="m385.70078 122.95276l64.28348 54.708664l-64.28348 54.70865z" fill-rule="evenodd"/><path fill="#414141" d="m385.70078 245.90552l64.28348 54.70865l-64.28348 54.70868z" fill-rule="evenodd"/><path fill="#616161" d="m449.98425 -430.69815l-64.28348 54.70865l64.28348 54.70865z" fill-rule="evenodd"/><path fill="#616161" d="m449.98425 -307.7454l-64.28348 54.70865l64.28348 54.708664z" fill-rule="evenodd"/><path fill="#616161" d="m449.98425 -184.79265l-64.28348 54.708664l64.28348 54.708656z" fill-rule="evenodd"/><path fill="#616161" d="m449.98425 -61.839893l-64.28348 54.70866l64.28348 54.70866z" fill-rule="evenodd"/><path fill="#616161" d="m449.98425 61.11286l-64.28348 54.708664l64.28348 54.708656z" fill-rule="evenodd"/><path fill="#616161" d="m449.98425 184.06561l-64.28348 54.708664l64.28348 54.708664z" fill-rule="evenodd"/><path fill="#616161" d="m449.98425 307.01837l-64.28348 54.70865l64.28348 54.70868z" fill-rule="evenodd"/><path fill="#414141" d="m449.98425 -430.69815l64.28345 54.70865l-64.28345 54.70865z" fill-rule="evenodd"/><path fill="#414141" d="m449.98425 -307.7454l64.28345 54.70865l-64.28345 54.708664z" fill-rule="evenodd"/><path fill="#414141" d="m449.98425 -184.79265l64.28345 54.708664l-64.28345 54.708656z" fill-rule="evenodd"/><path fill="#414141" d="m449.98425 -61.839893l64.28345 54.70866l-64.28345 54.70866z" fill-rule="evenodd"/><path fill="#414141" d="m449.98425 61.11286l64.28345 54.708664l-64.28345 54.708656z" fill-rule="evenodd"/><path fill="#414141" d="m449.98425 184.06561l64.28345 54.708664l-64.28345 54.708664z" fill-rule="evenodd"/><path fill="#414141" d="m449.98425 307.01837l64.28345 54.70865l-64.28345 54.70868z" fill-rule="evenodd"/><path fill="#616161" d="m514.2677 -369.5853l-64.28345 54.70865l64.28345 54.70868z" fill-rule="evenodd"/><path fill="#616161" d="m514.2677 -246.63255l-64.28345 54.708664l64.28345 54.708664z" fill-rule="evenodd"/><path fill="#616161" d="m514.2677 -123.67979l-64.28345 54.708656l64.28345 54.708664z" fill-rule="evenodd"/><path fill="#616161" d="m514.2677 -0.7270341l-64.28345 54.708664l64.28345 54.708664z" fill-rule="evenodd"/><path fill="#616161" d="m514.2677 122.22572l-64.28345 54.708664l64.28345 54.708664z" fill-rule="evenodd"/><path fill="#616161" d="m514.2677 245.17848l-64.28345 54.708664l64.28345 54.70865z" fill-rule="evenodd"/><path fill="#616161" d="m514.2677 368.13123l-64.28345 54.70868l64.28345 54.70865z" fill-rule="evenodd"/><path fill="#414141" d="m257.13385 -614.7638l64.28348 54.70868l-64.28348 54.70865z" fill-rule="evenodd"/><path fill="#414141" d="m257.13385 -491.81104l64.28348 54.70868l-64.28348 54.70865z" fill-rule="evenodd"/><path fill="#414141" d="m257.13385 -368.85828l64.28348 54.70868l-64.28348 54.70865z" fill-rule="evenodd"/><path fill="#414141" d="m257.13385 -245.90552l64.28348 54.708664l-64.28348 54.708664z" fill-rule="evenodd"/><path fill="#414141" d="m257.13385 -122.95276l64.28348 54.708664l-64.28348 54.708664z" fill-rule="evenodd"/><path fill="#414141" d="m257.13385 0l64.28348 54.70866l-64.28348 54.70866z" fill-rule="evenodd"/><path fill="#414141" d="m257.13385 122.95276l64.28348 54.708664l-64.28348 54.70865z" fill-rule="evenodd"/><path fill="#616161" d="m321.41733 -553.65094l-64.28348 54.70868l64.28348 54.70868z" fill-rule="evenodd"/><path fill="#616161" d="m321.41733 -430.69815l-64.28348 54.70865l64.28348 54.70865z" fill-rule="evenodd"/><path fill="#616161" d="m321.41733 -307.7454l-64.28348 54.70865l64.28348 54.708664z" fill-rule="evenodd"/><path fill="#616161" d="m321.41733 -184.79265l-64.28348 54.708664l64.28348 54.708656z" fill-rule="evenodd"/><path fill="#616161" d="m321.41733 -61.839893l-64.28348 54.70866l64.28348 54.70866z" fill-rule="evenodd"/><path fill="#616161" d="m321.41733 61.11286l-64.28348 54.708664l64.28348 54.708656z" fill-rule="evenodd"/><path fill="#616161" d="m321.41733 184.06561l-64.28348 54.708664l64.28348 54.708664z" fill-rule="evenodd"/><path fill="#414141" d="m321.41733 -553.65094l64.28345 54.70868l-64.28345 54.70868z" fill-rule="evenodd"/><path fill="#414141" d="m321.41733 -430.69815l64.28345 54.70865l-64.28345 54.70865z" fill-rule="evenodd"/><path fill="#414141" d="m321.41733 -307.7454l64.28345 54.70865l-64.28345 54.708664z" fill-rule="evenodd"/><path fill="#414141" d="m321.41733 -184.79265l64.28345 54.708664l-64.28345 54.708656z" fill-rule="evenodd"/><path fill="#414141" d="m321.41733 -61.839893l64.28345 54.70866l-64.28345 54.70866z" fill-rule="evenodd"/><path fill="#414141" d="m321.41733 61.11286l64.28345 54.708664l-64.28345 54.708656z" fill-rule="evenodd"/><path fill="#414141" d="m321.41733 184.06561l64.28345 54.708664l-64.28345 54.708664z" fill-rule="evenodd"/><path fill="#616161" d="m385.70078 -492.53806l-64.28345 54.70865l64.28345 54.70868z" fill-rule="evenodd"/><path fill="#616161" d="m385.70078 -369.5853l-64.28345 54.70865l64.28345 54.70868z" fill-rule="evenodd"/><path fill="#616161" d="m385.70078 -246.63255l-64.28345 54.708664l64.28345 54.708664z" fill-rule="evenodd"/><path fill="#616161" d="m385.70078 -123.67979l-64.28345 54.708656l64.28345 54.708664z" fill-rule="evenodd"/><path fill="#616161" d="m385.70078 -0.7270341l-64.28345 54.708664l64.28345 54.708664z" fill-rule="evenodd"/><path fill="#616161" d="m385.70078 122.22572l-64.28345 54.708664l64.28345 54.708664z" fill-rule="evenodd"/><path fill="#616161" d="m385.70078 245.17848l-64.28345 54.708664l64.28345 54.70865z" fill-rule="evenodd"/><path fill="#414141" d="m128.56693 -737.71655l64.28346 54.70868l-64.28346 54.70868z" fill-rule="evenodd"/><path fill="#414141" d="m128.56693 -614.7638l64.28346 54.70868l-64.28346 54.70865z" fill-rule="evenodd"/><path fill="#414141" d="m128.56693 -491.81104l64.28346 54.70868l-64.28346 54.70865z" fill-rule="evenodd"/><path fill="#414141" d="m128.56693 -368.85828l64.28346 54.70868l-64.28346 54.70865z" fill-rule="evenodd"/><path fill="#414141" d="m128.56693 -245.90552l64.28346 54.708664l-64.28346 54.708664z" fill-rule="evenodd"/><path fill="#414141" d="m128.56693 -122.95276l64.28346 54.708664l-64.28346 54.708664z" fill-rule="evenodd"/><path fill="#414141" d="m128.56693 0l64.28346 54.70866l-64.28346 54.70866z" fill-rule="evenodd"/><path fill="#616161" d="m192.85039 -676.6037l-64.28346 54.70868l64.28346 54.70868z" fill-rule="evenodd"/><path fill="#616161" d="m192.85039 -553.65094l-64.28346 54.70868l64.28346 54.70868z" fill-rule="evenodd"/><path fill="#616161" d="m192.85039 -430.69815l-64.28346 54.70865l64.28346 54.70865z" fill-rule="evenodd"/><path fill="#616161" d="m192.85039 -307.7454l-64.28346 54.70865l64.28346 54.708664z" fill-rule="evenodd"/><path fill="#616161" d="m192.85039 -184.79265l-64.28346 54.708664l64.28346 54.708656z" fill-rule="evenodd"/><path fill="#616161" d="m192.85039 -61.839893l-64.28346 54.70866l64.28346 54.70866z" fill-rule="evenodd"/><path fill="#616161" d="m192.85039 61.11286l-64.28346 54.708664l64.28346 54.708656z" fill-rule="evenodd"/><path fill="#414141" d="m192.85039 -676.6037l64.28346 54.70868l-64.28346 54.70868z" fill-rule="evenodd"/><path fill="#414141" d="m192.85039 -553.65094l64.28346 54.70868l-64.28346 54.70868z" fill-rule="evenodd"/><path fill="#414141" d="m192.85039 -430.69815l64.28346 54.70865l-64.28346 54.70865z" fill-rule="evenodd"/><path fill="#414141" d="m192.85039 -307.7454l64.28346 54.70865l-64.28346 54.708664z" fill-rule="evenodd"/><path fill="#414141" d="m192.85039 -184.79265l64.28346 54.708664l-64.28346 54.708656z" fill-rule="evenodd"/><path fill="#414141" d="m192.85039 -61.839893l64.28346 54.70866l-64.28346 54.70866z" fill-rule="evenodd"/><path fill="#414141" d="m192.85039 61.11286l64.28346 54.708664l-64.28346 54.708656z" fill-rule="evenodd"/><path fill="#616161" d="m257.13385 -615.4908l-64.28346 54.70862l64.28346 54.70868z" fill-rule="evenodd"/><path fill="#616161" d="m257.13385 -492.53806l-64.28346 54.70865l64.28346 54.70868z" fill-rule="evenodd"/><path fill="#616161" d="m257.13385 -369.5853l-64.28346 54.70865l64.28346 54.70868z" fill-rule="evenodd"/><path fill="#616161" d="m257.13385 -246.63255l-64.28346 54.708664l64.28346 54.708664z" fill-rule="evenodd"/><path fill="#616161" d="m257.13385 -123.67979l-64.28346 54.708656l64.28346 54.708664z" fill-rule="evenodd"/><path fill="#616161" d="m257.13385 -0.7270341l-64.28346 54.708664l64.28346 54.708664z" fill-rule="evenodd"/><path fill="#616161" d="m257.13385 122.22572l-64.28346 54.708664l64.28346 54.708664z" fill-rule="evenodd"/><path fill="#414141" d="m0 -860.6693l64.28346 54.70868l-64.28346 54.70868z" fill-rule="evenodd"/><path fill="#414141" d="m0 -737.71655l64.28346 54.70868l-64.28346 54.70868z" fill-rule="evenodd"/><path fill="#414141" d="m0 -614.7638l64.28346 54.70868l-64.28346 54.70865z" fill-rule="evenodd"/><path fill="#414141" d="m0 -491.81104l64.28346 54.70868l-64.28346 54.70865z" fill-rule="evenodd"/><path fill="#414141" d="m0 -368.85828l64.28346 54.70868l-64.28346 54.70865z" fill-rule="evenodd"/><path fill="#414141" d="m0 -245.90552l64.28346 54.708664l-64.28346 54.708664z" fill-rule="evenodd"/><path fill="#414141" d="m0 -122.95276l64.28346 54.708664l-64.28346 54.708664z" fill-rule="evenodd"/><path fill="#616161" d="m64.28346 -799.55646l-64.28346 54.70868l64.28346 54.70868z" fill-rule="evenodd"/><path fill="#616161" d="m64.28346 -676.6037l-64.28346 54.70868l64.28346 54.70868z" fill-rule="evenodd"/><path fill="#616161" d="m64.28346 -553.65094l-64.28346 54.70868l64.28346 54.70868z" fill-rule="evenodd"/><path fill="#616161" d="m64.28346 -430.69815l-64.28346 54.70865l64.28346 54.70865z" fill-rule="evenodd"/><path fill="#616161" d="m64.28346 -307.7454l-64.28346 54.70865l64.28346 54.708664z" fill-rule="evenodd"/><path fill="#616161" d="m64.28346 -184.79265l-64.28346 54.708664l64.28346 54.708656z" fill-rule="evenodd"/><path fill="#616161" d="m64.28346 -61.839893l-64.28346 54.70866l64.28346 54.70866z" fill-rule="evenodd"/><path fill="#414141" d="m64.28346 -799.55646l64.28346 54.70868l-64.28346 54.70868z" fill-rule="evenodd"/><path fill="#414141" d="m64.28346 -676.6037l64.28346 54.70868l-64.28346 54.70868z" fill-rule="evenodd"/><path fill="#414141" d="m64.28346 -553.65094l64.28346 54.70868l-64.28346 54.70868z" fill-rule="evenodd"/><path fill="#414141" d="m64.28346 -430.69815l64.28346 54.70865l-64.28346 54.70865z" fill-rule="evenodd"/><path fill="#414141" d="m64.28346 -307.7454l64.28346 54.70865l-64.28346 54.708664z" fill-rule="evenodd"/><path fill="#414141" d="m64.28346 -184.79265l64.28346 54.708664l-64.28346 54.708656z" fill-rule="evenodd"/><path fill="#414141" d="m64.28346 -61.839893l64.28346 54.70866l-64.28346 54.70866z" fill-rule="evenodd"/><path fill="#616161" d="m128.56693 -738.44354l-64.28346 54.70862l64.28346 54.70868z" fill-rule="evenodd"/><path fill="#616161" d="m128.56693 -615.4908l-64.28346 54.70862l64.28346 54.70868z" fill-rule="evenodd"/><path fill="#616161" d="m128.56693 -492.53806l-64.28346 54.70865l64.28346 54.70868z" fill-rule="evenodd"/><path fill="#616161" d="m128.56693 -369.5853l-64.28346 54.70865l64.28346 54.70868z" fill-rule="evenodd"/><path fill="#616161" d="m128.56693 -246.63255l-64.28346 54.708664l64.28346 54.708664z" fill-rule="evenodd"/><path fill="#616161" d="m128.56693 -123.67979l-64.28346 54.708656l64.28346 54.708664z" fill-rule="evenodd"/><path fill="#616161" d="m128.56693 -0.7270341l-64.28346 54.708664l64.28346 54.708664z" fill-rule="evenodd"/><path fill="#414141" d="m771.40155 -122.95276l64.28351 54.708664l-64.28351 54.708664z" fill-rule="evenodd"/><path fill="#414141" d="m771.40155 0l64.28351 54.70866l-64.28351 54.70866z" fill-rule="evenodd"/><path fill="#414141" d="m771.40155 122.95276l64.28351 54.708664l-64.28351 54.70865z" fill-rule="evenodd"/><path fill="#414141" d="m771.40155 245.90552l64.28351 54.70865l-64.28351 54.70868z" fill-rule="evenodd"/><path fill="#414141" d="m771.40155 368.85828l64.28351 54.70865l-64.28351 54.70868z" fill-rule="evenodd"/><path fill="#414141" d="m771.40155 491.81104l64.28351 54.70868l-64.28351 54.70862z" fill-rule="evenodd"/><path fill="#414141" d="m771.40155 614.7638l64.28351 54.70862l-64.28351 54.70868z" fill-rule="evenodd"/><path fill="#616161" d="m835.68506 -61.839893l-64.28351 54.70866l64.28351 54.70866z" fill-rule="evenodd"/><path fill="#616161" d="m835.68506 61.11286l-64.28351 54.708664l64.28351 54.708656z" fill-rule="evenodd"/><path fill="#616161" d="m835.68506 184.06561l-64.28351 54.708664l64.28351 54.708664z" fill-rule="evenodd"/><path fill="#616161" d="m835.68506 307.01837l-64.28351 54.70865l64.28351 54.70868z" fill-rule="evenodd"/><path fill="#616161" d="m835.68506 429.97113l-64.28351 54.70865l64.28351 54.70865z" fill-rule="evenodd"/><path fill="#616161" d="m835.68506 552.9239l-64.28351 54.70868l64.28351 54.70862z" fill-rule="evenodd"/><path fill="#616161" d="m835.68506 675.87665l-64.28351 54.70868l64.28351 54.70862z" fill-rule="evenodd"/><path fill="#414141" d="m835.68506 -61.839893l64.28345 54.70866l-64.28345 54.70866z" fill-rule="evenodd"/><path fill="#414141" d="m835.68506 61.11286l64.28345 54.708664l-64.28345 54.708656z" fill-rule="evenodd"/><path fill="#414141" d="m835.68506 184.06561l64.28345 54.708664l-64.28345 54.708664z" fill-rule="evenodd"/><path fill="#414141" d="m835.68506 307.01837l64.28345 54.70865l-64.28345 54.70868z" fill-rule="evenodd"/><path fill="#414141" d="m835.68506 429.97113l64.28345 54.70865l-64.28345 54.70865z" fill-rule="evenodd"/><path fill="#414141" d="m835.68506 552.9239l64.28345 54.70868l-64.28345 54.70862z" fill-rule="evenodd"/><path fill="#414141" d="m835.68506 675.87665l64.28345 54.70868l-64.28345 54.70862z" fill-rule="evenodd"/><path fill="#616161" d="m899.9685 -0.7270341l-64.28345 54.708664l64.28345 54.708664z" fill-rule="evenodd"/><path fill="#616161" d="m899.9685 122.22572l-64.28345 54.708664l64.28345 54.708664z" fill-rule="evenodd"/><path fill="#616161" d="m899.9685 245.17848l-64.28345 54.708664l64.28345 54.70865z" fill-rule="evenodd"/><path fill="#616161" d="m899.9685 368.13123l-64.28345 54.70868l64.28345 54.70865z" fill-rule="evenodd"/><path fill="#616161" d="m899.9685 491.08398l-64.28345 54.70868l64.28345 54.70868z" fill-rule="evenodd"/><path fill="#616161" d="m899.9685 614.03674l-64.28345 54.70868l64.28345 54.70862z" fill-rule="evenodd"/><path fill="#616161" d="m899.9685 736.9895l-64.28345 54.70868l64.28345 54.70862z" fill-rule="evenodd"/><path fill="#414141" d="m899.9685 -0.001312336l64.28345 54.70866l-64.28345 54.70866z" fill-rule="evenodd"/><path fill="#414141" d="m899.9685 122.95145l64.28345 54.708664l-64.28345 54.70865z" fill-rule="evenodd"/><path fill="#414141" d="m899.9685 245.9042l64.28345 54.70865l-64.28345 54.70868z" fill-rule="evenodd"/><path fill="#414141" d="m899.9685 368.85696l64.28345 54.70865l-64.28345 54.70868z" fill-rule="evenodd"/><path fill="#414141" d="m899.9685 491.80972l64.28345 54.70865l-64.28345 54.70868z" fill-rule="evenodd"/><path fill="#414141" d="m899.9685 614.76245l64.28345 54.70868l-64.28345 54.70868z" fill-rule="evenodd"/><path fill="#414141" d="m899.9685 737.7152l64.28345 54.70868l-64.28345 54.70868z" fill-rule="evenodd"/><path fill="#616161" d="m964.25195 61.11155l-64.28345 54.708664l64.28345 54.708656z" fill-rule="evenodd"/><path fill="#616161" d="m964.25195 184.0643l-64.28345 54.708664l64.28345 54.708664z" fill-rule="evenodd"/><path fill="#616161" d="m964.25195 307.01706l-64.28345 54.70865l64.28345 54.70868z" fill-rule="evenodd"/><path fill="#616161" d="m964.25195 429.96982l-64.28345 54.70865l64.28345 54.70868z" fill-rule="evenodd"/><path fill="#616161" d="m964.25195 552.92255l-64.28345 54.70868l64.28345 54.70868z" fill-rule="evenodd"/><path fill="#616161" d="m964.25195 675.8753l-64.28345 54.70868l64.28345 54.70868z" fill-rule="evenodd"/><path fill="#616161" d="m964.25195 798.82806l-64.28345 54.70868l64.28345 54.70868z" fill-rule="evenodd"/><path fill="#414141" d="m964.25195 61.11155l64.28345 54.708664l-64.28345 54.708656z" fill-rule="evenodd"/><path fill="#414141" d="m964.25195 184.0643l64.28345 54.708664l-64.28345 54.708664z" fill-rule="evenodd"/><path fill="#414141" d="m964.25195 307.01706l64.28345 54.70865l-64.28345 54.70868z" fill-rule="evenodd"/><path fill="#414141" d="m964.25195 429.96982l64.28345 54.70865l-64.28345 54.70868z" fill-rule="evenodd"/><path fill="#414141" d="m964.25195 552.92255l64.28345 54.70868l-64.28345 54.70868z" fill-rule="evenodd"/><path fill="#414141" d="m964.25195 675.8753l64.28345 54.70868l-64.28345 54.70868z" fill-rule="evenodd"/><path fill="#414141" d="m964.25195 798.82806l64.28345 54.70868l-64.28345 54.70868z" fill-rule="evenodd"/><path fill="#616161" d="m1028.5354 122.22441l-64.28345 54.708664l64.28345 54.708664z" fill-rule="evenodd"/><path fill="#616161" d="m1028.5354 245.17717l-64.28345 54.708664l64.28345 54.70865z" fill-rule="evenodd"/><path fill="#616161" d="m1028.5354 368.1299l-64.28345 54.70868l64.28345 54.70865z" fill-rule="evenodd"/><path fill="#616161" d="m1028.5354 491.08267l-64.28345 54.70865l64.28345 54.70868z" fill-rule="evenodd"/><path fill="#616161" d="m1028.5354 614.03546l-64.28345 54.70862l64.28345 54.70868z" fill-rule="evenodd"/><path fill="#616161" d="m1028.5354 736.98816l-64.28345 54.70868l64.28345 54.70868z" fill-rule="evenodd"/><path fill="#616161" d="m1028.5354 859.9409l-64.28345 54.70868l64.28345 54.70868z" fill-rule="evenodd"/><path fill="#414141" d="m1028.5354 0l64.28345 54.70866l-64.28345 54.70866z" fill-rule="evenodd"/><path fill="#414141" d="m1028.5354 122.95276l64.28345 54.708664l-64.28345 54.70865z" fill-rule="evenodd"/><path fill="#414141" d="m1028.5354 245.90552l64.28345 54.70865l-64.28345 54.70868z" fill-rule="evenodd"/><path fill="#414141" d="m1028.5354 368.85828l64.28345 54.70865l-64.28345 54.70868z" fill-rule="evenodd"/><path fill="#414141" d="m1028.5354 491.81104l64.28345 54.70868l-64.28345 54.70862z" fill-rule="evenodd"/><path fill="#414141" d="m1028.5354 614.7638l64.28345 54.70862l-64.28345 54.70868z" fill-rule="evenodd"/><path fill="#414141" d="m1028.5354 737.71655l64.28345 54.70862l-64.28345 54.70868z" fill-rule="evenodd"/><path fill="#616161" d="m1092.8188 61.11286l-64.28345 54.708664l64.28345 54.708656z" fill-rule="evenodd"/><path fill="#616161" d="m1092.8188 184.06561l-64.28345 54.708664l64.28345 54.708664z" fill-rule="evenodd"/><path fill="#616161" d="m1092.8188 307.01837l-64.28345 54.70865l64.28345 54.70868z" fill-rule="evenodd"/><path fill="#616161" d="m1092.8188 429.97113l-64.28345 54.70865l64.28345 54.70865z" fill-rule="evenodd"/><path fill="#616161" d="m1092.8188 552.9239l-64.28345 54.70868l64.28345 54.70862z" fill-rule="evenodd"/><path fill="#616161" d="m1092.8188 675.87665l-64.28345 54.70868l64.28345 54.70862z" fill-rule="evenodd"/><path fill="#616161" d="m1092.8188 798.8294l-64.28345 54.70868l64.28345 54.70862z" fill-rule="evenodd"/><path fill="#414141" d="m1092.8188 61.11286l64.28357 54.708664l-64.28357 54.708656z" fill-rule="evenodd"/><path fill="#414141" d="m1092.8188 184.06561l64.28357 54.708664l-64.28357 54.708664z" fill-rule="evenodd"/><path fill="#414141" d="m1092.8188 307.01837l64.28357 54.70865l-64.28357 54.70868z" fill-rule="evenodd"/><path fill="#414141" d="m1092.8188 429.97113l64.28357 54.70865l-64.28357 54.70865z" fill-rule="evenodd"/><path fill="#414141" d="m1092.8188 552.9239l64.28357 54.70868l-64.28357 54.70862z" fill-rule="evenodd"/><path fill="#414141" d="m1092.8188 675.87665l64.28357 54.70868l-64.28357 54.70862z" fill-rule="evenodd"/><path fill="#414141" d="m1092.8188 798.8294l64.28357 54.70868l-64.28357 54.70862z" fill-rule="evenodd"/><path fill="#616161" d="m1157.1024 122.22572l-64.28357 54.708664l64.28357 54.708664z" fill-rule="evenodd"/><path fill="#616161" d="m1157.1024 245.17848l-64.28357 54.708664l64.28357 54.70865z" fill-rule="evenodd"/><path fill="#616161" d="m1157.1024 368.13123l-64.28357 54.70868l64.28357 54.70865z" fill-rule="evenodd"/><path fill="#616161" d="m1157.1024 491.08398l-64.28357 54.70868l64.28357 54.70868z" fill-rule="evenodd"/><path fill="#616161" d="m1157.1024 614.03674l-64.28357 54.70868l64.28357 54.70862z" fill-rule="evenodd"/><path fill="#616161" d="m1157.1024 736.9895l-64.28357 54.70868l64.28357 54.70862z" fill-rule="evenodd"/><path fill="#616161" d="m1157.1024 859.94226l-64.28357 54.70868l64.28357 54.70862z" fill-rule="evenodd"/><path fill="#414141" d="m771.40155 737.71655l64.28351 54.70862l-64.28351 54.70868z" fill-rule="evenodd"/><path fill="#414141" d="m771.40155 860.6693l64.28351 54.70862l-64.28351 54.70868z" fill-rule="evenodd"/><path fill="#414141" d="m771.40155 983.6221l64.28351 54.70862l-64.28351 54.70874z" fill-rule="evenodd"/><path fill="#414141" d="m771.40155 1106.5748l64.28351 54.70862l-64.28351 54.70862z" fill-rule="evenodd"/><path fill="#414141" d="m771.40155 1229.5276l64.28351 54.70862l-64.28351 54.70862z" fill-rule="evenodd"/><path fill="#414141" d="m771.40155 1352.4803l64.28351 54.70862l-64.28351 54.70862z" fill-rule="evenodd"/><path fill="#414141" d="m771.40155 1475.4331l64.28351 54.70862l-64.28351 54.70862z" fill-rule="evenodd"/><path fill="#616161" d="m835.68506 798.8294l-64.28351 54.70868l64.28351 54.70862z" fill-rule="evenodd"/><path fill="#616161" d="m835.68506 921.78217l-64.28351 54.70862l64.28351 54.70868z" fill-rule="evenodd"/><path fill="#616161" d="m835.68506 1044.7349l-64.28351 54.70874l64.28351 54.70862z" fill-rule="evenodd"/><path fill="#616161" d="m835.68506 1167.6876l-64.28351 54.70874l64.28351 54.70862z" fill-rule="evenodd"/><path fill="#616161" d="m835.68506 1290.6404l-64.28351 54.70874l64.28351 54.70862z" fill-rule="evenodd"/><path fill="#616161" d="m835.68506 1413.5931l-64.28351 54.70874l64.28351 54.70862z" fill-rule="evenodd"/><path fill="#616161" d="m835.68506 1536.5459l-64.28351 54.70874l64.28351 54.70862z" fill-rule="evenodd"/><path fill="#414141" d="m835.68506 798.8294l64.28345 54.70868l-64.28345 54.70862z" fill-rule="evenodd"/><path fill="#414141" d="m835.68506 921.78217l64.28345 54.70862l-64.28345 54.70868z" fill-rule="evenodd"/><path fill="#414141" d="m835.68506 1044.7349l64.28345 54.70874l-64.28345 54.70862z" fill-rule="evenodd"/><path fill="#414141" d="m835.68506 1167.6876l64.28345 54.70874l-64.28345 54.70862z" fill-rule="evenodd"/><path fill="#414141" d="m835.68506 1290.6404l64.28345 54.70874l-64.28345 54.70862z" fill-rule="evenodd"/><path fill="#414141" d="m835.68506 1413.5931l64.28345 54.70874l-64.28345 54.70862z" fill-rule="evenodd"/><path fill="#414141" d="m835.68506 1536.5459l64.28345 54.70874l-64.28345 54.70862z" fill-rule="evenodd"/><path fill="#616161" d="m899.9685 859.94226l-64.28345 54.70868l64.28345 54.70862z" fill-rule="evenodd"/><path fill="#616161" d="m899.9685 982.895l-64.28345 54.70862l64.28345 54.70874z" fill-rule="evenodd"/><path fill="#616161" d="m899.9685 1105.8478l-64.28345 54.70862l64.28345 54.70874z" fill-rule="evenodd"/><path fill="#616161" d="m899.9685 1228.8005l-64.28345 54.70862l64.28345 54.70874z" fill-rule="evenodd"/><path fill="#616161" d="m899.9685 1351.7533l-64.28345 54.70862l64.28345 54.70874z" fill-rule="evenodd"/><path fill="#616161" d="m899.9685 1474.706l-64.28345 54.70862l64.28345 54.70874z" fill-rule="evenodd"/><path fill="#616161" d="m899.9685 1597.6588l-64.28345 54.70862l64.28345 54.70874z" fill-rule="evenodd"/><path fill="#414141" d="m1157.1024 0l64.28345 54.70866l-64.28345 54.70866z" fill-rule="evenodd"/><path fill="#414141" d="m1157.1024 122.95276l64.28345 54.708664l-64.28345 54.70865z" fill-rule="evenodd"/><path fill="#414141" d="m1157.1024 245.90552l64.28345 54.70865l-64.28345 54.70868z" fill-rule="evenodd"/><path fill="#414141" d="m1157.1024 368.85828l64.28345 54.70865l-64.28345 54.70868z" fill-rule="evenodd"/><path fill="#414141" d="m1157.1024 491.81104l64.28345 54.70868l-64.28345 54.70862z" fill-rule="evenodd"/><path fill="#414141" d="m1157.1024 614.7638l64.28345 54.70862l-64.28345 54.70868z" fill-rule="evenodd"/><path fill="#414141" d="m1157.1024 737.71655l64.28345 54.70862l-64.28345 54.70868z" fill-rule="evenodd"/><path fill="#616161" d="m1221.3859 61.11286l-64.28345 54.708664l64.28345 54.708656z" fill-rule="evenodd"/><path fill="#616161" d="m1221.3859 184.06561l-64.28345 54.708664l64.28345 54.708664z" fill-rule="evenodd"/><path fill="#616161" d="m1221.3859 307.01837l-64.28345 54.70865l64.28345 54.70868z" fill-rule="evenodd"/><path fill="#616161" d="m1221.3859 429.97113l-64.28345 54.70865l64.28345 54.70865z" fill-rule="evenodd"/><path fill="#616161" d="m1221.3859 552.9239l-64.28345 54.70868l64.28345 54.70862z" fill-rule="evenodd"/><path fill="#616161" d="m1221.3859 675.87665l-64.28345 54.70868l64.28345 54.70862z" fill-rule="evenodd"/><path fill="#616161" d="m1221.3859 798.8294l-64.28345 54.70868l64.28345 54.70862z" fill-rule="evenodd"/><path fill="#414141" d="m1221.3859 61.11286l64.28345 54.708664l-64.28345 54.708656z" fill-rule="evenodd"/><path fill="#414141" d="m1221.3859 184.06561l64.28345 54.708664l-64.28345 54.708664z" fill-rule="evenodd"/><path fill="#414141" d="m1221.3859 307.01837l64.28345 54.70865l-64.28345 54.70868z" fill-rule="evenodd"/><path fill="#414141" d="m1221.3859 429.97113l64.28345 54.70865l-64.28345 54.70865z" fill-rule="evenodd"/><path fill="#414141" d="m1221.3859 552.9239l64.28345 54.70868l-64.28345 54.70862z" fill-rule="evenodd"/><path fill="#414141" d="m1221.3859 675.87665l64.28345 54.70868l-64.28345 54.70862z" fill-rule="evenodd"/><path fill="#414141" d="m1221.3859 798.8294l64.28345 54.70868l-64.28345 54.70862z" fill-rule="evenodd"/><path fill="#616161" d="m1285.6693 122.22572l-64.28345 54.708664l64.28345 54.708664z" fill-rule="evenodd"/><path fill="#616161" d="m1285.6693 245.17848l-64.28345 54.708664l64.28345 54.70865z" fill-rule="evenodd"/><path fill="#616161" d="m1285.6693 368.13123l-64.28345 54.70868l64.28345 54.70865z" fill-rule="evenodd"/><path fill="#616161" d="m1285.6693 491.08398l-64.28345 54.70868l64.28345 54.70868z" fill-rule="evenodd"/><path fill="#616161" d="m1285.6693 614.03674l-64.28345 54.70868l64.28345 54.70862z" fill-rule="evenodd"/><path fill="#616161" d="m1285.6693 736.9895l-64.28345 54.70868l64.28345 54.70862z" fill-rule="evenodd"/><path fill="#616161" d="m1285.6693 859.94226l-64.28345 54.70868l64.28345 54.70862z" fill-rule="evenodd"/><path fill="#414141" d="m1285.6693 0l64.28345 54.70866l-64.28345 54.70866z" fill-rule="evenodd"/><path fill="#414141" d="m1285.6693 122.95276l64.28345 54.708664l-64.28345 54.70865z" fill-rule="evenodd"/><path fill="#414141" d="m1285.6693 245.90552l64.28345 54.70865l-64.28345 54.70868z" fill-rule="evenodd"/><path fill="#414141" d="m1285.6693 368.85828l64.28345 54.70865l-64.28345 54.70868z" fill-rule="evenodd"/><path fill="#414141" d="m1285.6693 491.81104l64.28345 54.70868l-64.28345 54.70862z" fill-rule="evenodd"/><path fill="#414141" d="m1285.6693 614.7638l64.28345 54.70862l-64.28345 54.70868z" fill-rule="evenodd"/><path fill="#414141" d="m1285.6693 737.71655l64.28345 54.70862l-64.28345 54.70868z" fill-rule="evenodd"/><path fill="#616161" d="m1349.9528 61.11286l-64.28345 54.708664l64.28345 54.708656z" fill-rule="evenodd"/><path fill="#616161" d="m1349.9528 184.06561l-64.28345 54.708664l64.28345 54.708664z" fill-rule="evenodd"/><path fill="#616161" d="m1349.9528 307.01837l-64.28345 54.70865l64.28345 54.70868z" fill-rule="evenodd"/><path fill="#616161" d="m1349.9528 429.97113l-64.28345 54.70865l64.28345 54.70865z" fill-rule="evenodd"/><path fill="#616161" d="m1349.9528 552.9239l-64.28345 54.70868l64.28345 54.70862z" fill-rule="evenodd"/><path fill="#616161" d="m1349.9528 675.87665l-64.28345 54.70868l64.28345 54.70862z" fill-rule="evenodd"/><path fill="#616161" d="m1349.9528 798.8294l-64.28345 54.70868l64.28345 54.70862z" fill-rule="evenodd"/><path fill="#414141" d="m1349.9528 61.11286l64.28345 54.708664l-64.28345 54.708656z" fill-rule="evenodd"/><path fill="#414141" d="m1349.9528 184.06561l64.28345 54.708664l-64.28345 54.708664z" fill-rule="evenodd"/><path fill="#414141" d="m1349.9528 307.01837l64.28345 54.70865l-64.28345 54.70868z" fill-rule="evenodd"/><path fill="#414141" d="m1349.9528 429.97113l64.28345 54.70865l-64.28345 54.70865z" fill-rule="evenodd"/><path fill="#414141" d="m1349.9528 552.9239l64.28345 54.70868l-64.28345 54.70862z" fill-rule="evenodd"/><path fill="#414141" d="m1349.9528 675.87665l64.28345 54.70868l-64.28345 54.70862z" fill-rule="evenodd"/><path fill="#414141" d="m1349.9528 798.8294l64.28345 54.70868l-64.28345 54.70862z" fill-rule="evenodd"/><path fill="#616161" d="m1414.2362 122.22572l-64.28345 54.708664l64.28345 54.708664z" fill-rule="evenodd"/><path fill="#616161" d="m1414.2362 245.17848l-64.28345 54.708664l64.28345 54.70865z" fill-rule="evenodd"/><path fill="#616161" d="m1414.2362 368.13123l-64.28345 54.70868l64.28345 54.70865z" fill-rule="evenodd"/><path fill="#616161" d="m1414.2362 491.08398l-64.28345 54.70868l64.28345 54.70868z" fill-rule="evenodd"/><path fill="#616161" d="m1414.2362 614.03674l-64.28345 54.70868l64.28345 54.70862z" fill-rule="evenodd"/><path fill="#616161" d="m1414.2362 736.9895l-64.28345 54.70868l64.28345 54.70862z" fill-rule="evenodd"/><path fill="#616161" d="m1414.2362 859.94226l-64.28345 54.70868l64.28345 54.70862z" fill-rule="evenodd"/><path fill="#414141" d="m1414.2362 0l64.28345 54.70866l-64.28345 54.70866z" fill-rule="evenodd"/><path fill="#414141" d="m1414.2362 122.95276l64.28345 54.708664l-64.28345 54.70865z" fill-rule="evenodd"/><path fill="#414141" d="m1414.2362 245.90552l64.28345 54.70865l-64.28345 54.70868z" fill-rule="evenodd"/><path fill="#414141" d="m1414.2362 368.85828l64.28345 54.70865l-64.28345 54.70868z" fill-rule="evenodd"/><path fill="#414141" d="m1414.2362 491.81104l64.28345 54.70868l-64.28345 54.70862z" fill-rule="evenodd"/><path fill="#414141" d="m1414.2362 614.7638l64.28345 54.70862l-64.28345 54.70868z" fill-rule="evenodd"/><path fill="#414141" d="m1414.2362 737.71655l64.28345 54.70862l-64.28345 54.70868z" fill-rule="evenodd"/><path fill="#616161" d="m1478.5197 61.11286l-64.28345 54.708664l64.28345 54.708656z" fill-rule="evenodd"/><path fill="#616161" d="m1478.5197 184.06561l-64.28345 54.708664l64.28345 54.708664z" fill-rule="evenodd"/><path fill="#616161" d="m1478.5197 307.01837l-64.28345 54.70865l64.28345 54.70868z" fill-rule="evenodd"/><path fill="#616161" d="m1478.5197 429.97113l-64.28345 54.70865l64.28345 54.70865z" fill-rule="evenodd"/><path fill="#616161" d="m1478.5197 552.9239l-64.28345 54.70868l64.28345 54.70862z" fill-rule="evenodd"/><path fill="#616161" d="m1478.5197 675.87665l-64.28345 54.70868l64.28345 54.70862z" fill-rule="evenodd"/><path fill="#616161" d="m1478.5197 798.8294l-64.28345 54.70868l64.28345 54.70862z" fill-rule="evenodd"/><path fill="#414141" d="m1478.5197 61.11286l64.28345 54.708664l-64.28345 54.708656z" fill-rule="evenodd"/><path fill="#414141" d="m1478.5197 184.06561l64.28345 54.708664l-64.28345 54.708664z" fill-rule="evenodd"/><path fill="#414141" d="m1478.5197 307.01837l64.28345 54.70865l-64.28345 54.70868z" fill-rule="evenodd"/><path fill="#414141" d="m1478.5197 429.97113l64.28345 54.70865l-64.28345 54.70865z" fill-rule="evenodd"/><path fill="#414141" d="m1478.5197 552.9239l64.28345 54.70868l-64.28345 54.70862z" fill-rule="evenodd"/><path fill="#414141" d="m1478.5197 675.87665l64.28345 54.70868l-64.28345 54.70862z" fill-rule="evenodd"/><path fill="#414141" d="m1478.5197 798.8294l64.28345 54.70868l-64.28345 54.70862z" fill-rule="evenodd"/><path fill="#616161" d="m1542.8031 122.22572l-64.28345 54.708664l64.28345 54.708664z" fill-rule="evenodd"/><path fill="#616161" d="m1542.8031 245.17848l-64.28345 54.708664l64.28345 54.70865z" fill-rule="evenodd"/><path fill="#616161" d="m1542.8031 368.13123l-64.28345 54.70868l64.28345 54.70865z" fill-rule="evenodd"/><path fill="#616161" d="m1542.8031 491.08398l-64.28345 54.70868l64.28345 54.70868z" fill-rule="evenodd"/><path fill="#616161" d="m1542.8031 614.03674l-64.28345 54.70868l64.28345 54.70862z" fill-rule="evenodd"/><path fill="#616161" d="m1542.8031 736.9895l-64.28345 54.70868l64.28345 54.70862z" fill-rule="evenodd"/><path fill="#616161" d="m1542.8031 859.94226l-64.28345 54.70868l64.28345 54.70862z" fill-rule="evenodd"/><path fill="#414141" d="m1414.2362 -860.6693l64.28345 54.70868l-64.28345 54.70868z" fill-rule="evenodd"/><path fill="#414141" d="m1414.2362 -737.71655l64.28345 54.70868l-64.28345 54.70868z" fill-rule="evenodd"/><path fill="#414141" d="m1414.2362 -614.7638l64.28345 54.70868l-64.28345 54.70865z" fill-rule="evenodd"/><path fill="#414141" d="m1414.2362 -491.81104l64.28345 54.70868l-64.28345 54.70865z" fill-rule="evenodd"/><path fill="#414141" d="m1414.2362 -368.85828l64.28345 54.70868l-64.28345 54.70865z" fill-rule="evenodd"/><path fill="#414141" d="m1414.2362 -245.90552l64.28345 54.708664l-64.28345 54.708664z" fill-rule="evenodd"/><path fill="#414141" d="m1414.2362 -122.95276l64.28345 54.708664l-64.28345 54.708664z" fill-rule="evenodd"/><path fill="#616161" d="m1478.5197 -799.55646l-64.28345 54.70868l64.28345 54.70868z" fill-rule="evenodd"/><path fill="#616161" d="m1478.5197 -676.6037l-64.28345 54.70868l64.28345 54.70868z" fill-rule="evenodd"/><path fill="#616161" d="m1478.5197 -553.65094l-64.28345 54.70868l64.28345 54.70868z" fill-rule="evenodd"/><path fill="#616161" d="m1478.5197 -430.69815l-64.28345 54.70865l64.28345 54.70865z" fill-rule="evenodd"/><path fill="#616161" d="m1478.5197 -307.7454l-64.28345 54.70865l64.28345 54.708664z" fill-rule="evenodd"/><path fill="#616161" d="m1478.5197 -184.79265l-64.28345 54.708664l64.28345 54.708656z" fill-rule="evenodd"/><path fill="#616161" d="m1478.5197 -61.839893l-64.28345 54.70866l64.28345 54.70866z" fill-rule="evenodd"/><path fill="#414141" d="m1478.5197 -799.55646l64.28345 54.70868l-64.28345 54.70868z" fill-rule="evenodd"/><path fill="#414141" d="m1478.5197 -676.6037l64.28345 54.70868l-64.28345 54.70868z" fill-rule="evenodd"/><path fill="#414141" d="m1478.5197 -553.65094l64.28345 54.70868l-64.28345 54.70868z" fill-rule="evenodd"/><path fill="#414141" d="m1478.5197 -430.69815l64.28345 54.70865l-64.28345 54.70865z" fill-rule="evenodd"/><path fill="#414141" d="m1478.5197 -307.7454l64.28345 54.70865l-64.28345 54.708664z" fill-rule="evenodd"/><path fill="#414141" d="m1478.5197 -184.79265l64.28345 54.708664l-64.28345 54.708656z" fill-rule="evenodd"/><path fill="#414141" d="m1478.5197 -61.839893l64.28345 54.70866l-64.28345 54.70866z" fill-rule="evenodd"/><path fill="#616161" d="m1542.8031 -738.44354l-64.28345 54.70862l64.28345 54.70868z" fill-rule="evenodd"/><path fill="#616161" d="m1542.8031 -615.4908l-64.28345 54.70862l64.28345 54.70868z" fill-rule="evenodd"/><path fill="#616161" d="m1542.8031 -492.53806l-64.28345 54.70865l64.28345 54.70868z" fill-rule="evenodd"/><path fill="#616161" d="m1542.8031 -369.5853l-64.28345 54.70865l64.28345 54.70868z" fill-rule="evenodd"/><path fill="#616161" d="m1542.8031 -246.63255l-64.28345 54.708664l64.28345 54.708664z" fill-rule="evenodd"/><path fill="#616161" d="m1542.8031 -123.67979l-64.28345 54.708656l64.28345 54.708664z" fill-rule="evenodd"/><path fill="#616161" d="m1542.8031 -0.7270341l-64.28345 54.708664l64.28345 54.708664z" fill-rule="evenodd"/><path fill="#414141" d="m1285.6693 -860.6693l64.28345 54.70868l-64.28345 54.70868z" fill-rule="evenodd"/><path fill="#414141" d="m1285.6693 -737.71655l64.28345 54.70868l-64.28345 54.70868z" fill-rule="evenodd"/><path fill="#414141" d="m1285.6693 -614.7638l64.28345 54.70868l-64.28345 54.70865z" fill-rule="evenodd"/><path fill="#414141" d="m1285.6693 -491.81104l64.28345 54.70868l-64.28345 54.70865z" fill-rule="evenodd"/><path fill="#414141" d="m1285.6693 -368.85828l64.28345 54.70868l-64.28345 54.70865z" fill-rule="evenodd"/><path fill="#414141" d="m1285.6693 -245.90552l64.28345 54.708664l-64.28345 54.708664z" fill-rule="evenodd"/><path fill="#414141" d="m1285.6693 -122.95276l64.28345 54.708664l-64.28345 54.708664z" fill-rule="evenodd"/><path fill="#616161" d="m1349.9528 -799.55646l-64.28345 54.70868l64.28345 54.70868z" fill-rule="evenodd"/><path fill="#616161" d="m1349.9528 -676.6037l-64.28345 54.70868l64.28345 54.70868z" fill-rule="evenodd"/><path fill="#616161" d="m1349.9528 -553.65094l-64.28345 54.70868l64.28345 54.70868z" fill-rule="evenodd"/><path fill="#616161" d="m1349.9528 -430.69815l-64.28345 54.70865l64.28345 54.70865z" fill-rule="evenodd"/><path fill="#616161" d="m1349.9528 -307.7454l-64.28345 54.70865l64.28345 54.708664z" fill-rule="evenodd"/><path fill="#616161" d="m1349.9528 -184.79265l-64.28345 54.708664l64.28345 54.708656z" fill-rule="evenodd"/><path fill="#616161" d="m1349.9528 -61.839893l-64.28345 54.70866l64.28345 54.70866z" fill-rule="evenodd"/><path fill="#414141" d="m1349.9528 -799.55646l64.28345 54.70868l-64.28345 54.70868z" fill-rule="evenodd"/><path fill="#414141" d="m1349.9528 -676.6037l64.28345 54.70868l-64.28345 54.70868z" fill-rule="evenodd"/><path fill="#414141" d="m1349.9528 -553.65094l64.28345 54.70868l-64.28345 54.70868z" fill-rule="evenodd"/><path fill="#414141" d="m1349.9528 -430.69815l64.28345 54.70865l-64.28345 54.70865z" fill-rule="evenodd"/><path fill="#414141" d="m1349.9528 -307.7454l64.28345 54.70865l-64.28345 54.708664z" fill-rule="evenodd"/><path fill="#414141" d="m1349.9528 -184.79265l64.28345 54.708664l-64.28345 54.708656z" fill-rule="evenodd"/><path fill="#414141" d="m1349.9528 -61.839893l64.28345 54.70866l-64.28345 54.70866z" fill-rule="evenodd"/><path fill="#616161" d="m1414.2362 -738.44354l-64.28345 54.70862l64.28345 54.70868z" fill-rule="evenodd"/><path fill="#616161" d="m1414.2362 -615.4908l-64.28345 54.70862l64.28345 54.70868z" fill-rule="evenodd"/><path fill="#616161" d="m1414.2362 -492.53806l-64.28345 54.70865l64.28345 54.70868z" fill-rule="evenodd"/><path fill="#616161" d="m1414.2362 -369.5853l-64.28345 54.70865l64.28345 54.70868z" fill-rule="evenodd"/><path fill="#616161" d="m1414.2362 -246.63255l-64.28345 54.708664l64.28345 54.708664z" fill-rule="evenodd"/><path fill="#616161" d="m1414.2362 -123.67979l-64.28345 54.708656l64.28345 54.708664z" fill-rule="evenodd"/><path fill="#616161" d="m1414.2362 -0.7270341l-64.28345 54.708664l64.28345 54.708664z" fill-rule="evenodd"/><path fill="#414141" d="m1157.1024 -860.6693l64.28345 54.70868l-64.28345 54.70868z" fill-rule="evenodd"/><path fill="#414141" d="m1157.1024 -737.71655l64.28345 54.70868l-64.28345 54.70868z" fill-rule="evenodd"/><path fill="#414141" d="m1157.1024 -614.7638l64.28345 54.70868l-64.28345 54.70865z" fill-rule="evenodd"/><path fill="#414141" d="m1157.1024 -491.81104l64.28345 54.70868l-64.28345 54.70865z" fill-rule="evenodd"/><path fill="#414141" d="m1157.1024 -368.85828l64.28345 54.70868l-64.28345 54.70865z" fill-rule="evenodd"/><path fill="#414141" d="m1157.1024 -245.90552l64.28345 54.708664l-64.28345 54.708664z" fill-rule="evenodd"/><path fill="#414141" d="m1157.1024 -122.95276l64.28345 54.708664l-64.28345 54.708664z" fill-rule="evenodd"/><path fill="#616161" d="m1221.3859 -799.55646l-64.28345 54.70868l64.28345 54.70868z" fill-rule="evenodd"/><path fill="#616161" d="m1221.3859 -676.6037l-64.28345 54.70868l64.28345 54.70868z" fill-rule="evenodd"/><path fill="#616161" d="m1221.3859 -553.65094l-64.28345 54.70868l64.28345 54.70868z" fill-rule="evenodd"/><path fill="#616161" d="m1221.3859 -430.69815l-64.28345 54.70865l64.28345 54.70865z" fill-rule="evenodd"/><path fill="#616161" d="m1221.3859 -307.7454l-64.28345 54.70865l64.28345 54.708664z" fill-rule="evenodd"/><path fill="#616161" d="m1221.3859 -184.79265l-64.28345 54.708664l64.28345 54.708656z" fill-rule="evenodd"/><path fill="#616161" d="m1221.3859 -61.839893l-64.28345 54.70866l64.28345 54.70866z" fill-rule="evenodd"/><path fill="#414141" d="m1221.3859 -799.55646l64.28345 54.70868l-64.28345 54.70868z" fill-rule="evenodd"/><path fill="#414141" d="m1221.3859 -676.6037l64.28345 54.70868l-64.28345 54.70868z" fill-rule="evenodd"/><path fill="#414141" d="m1221.3859 -553.65094l64.28345 54.70868l-64.28345 54.70868z" fill-rule="evenodd"/><path fill="#414141" d="m1221.3859 -430.69815l64.28345 54.70865l-64.28345 54.70865z" fill-rule="evenodd"/><path fill="#414141" d="m1221.3859 -307.7454l64.28345 54.70865l-64.28345 54.708664z" fill-rule="evenodd"/><path fill="#414141" d="m1221.3859 -184.79265l64.28345 54.708664l-64.28345 54.708656z" fill-rule="evenodd"/><path fill="#414141" d="m1221.3859 -61.839893l64.28345 54.70866l-64.28345 54.70866z" fill-rule="evenodd"/><path fill="#616161" d="m1285.6693 -738.44354l-64.28345 54.70862l64.28345 54.70868z" fill-rule="evenodd"/><path fill="#616161" d="m1285.6693 -615.4908l-64.28345 54.70862l64.28345 54.70868z" fill-rule="evenodd"/><path fill="#616161" d="m1285.6693 -492.53806l-64.28345 54.70865l64.28345 54.70868z" fill-rule="evenodd"/><path fill="#616161" d="m1285.6693 -369.5853l-64.28345 54.70865l64.28345 54.70868z" fill-rule="evenodd"/><path fill="#616161" d="m1285.6693 -246.63255l-64.28345 54.708664l64.28345 54.708664z" fill-rule="evenodd"/><path fill="#616161" d="m1285.6693 -123.67979l-64.28345 54.708656l64.28345 54.708664z" fill-rule="evenodd"/><path fill="#616161" d="m1285.6693 -0.7270341l-64.28345 54.708664l64.28345 54.708664z" fill-rule="evenodd"/><path fill="#414141" d="m1028.5354 -860.6693l64.28345 54.70868l-64.28345 54.70868z" fill-rule="evenodd"/><path fill="#414141" d="m1028.5354 -737.71655l64.28345 54.70868l-64.28345 54.70868z" fill-rule="evenodd"/><path fill="#414141" d="m1028.5354 -614.7638l64.28345 54.70868l-64.28345 54.70865z" fill-rule="evenodd"/><path fill="#414141" d="m1028.5354 -491.81104l64.28345 54.70868l-64.28345 54.70865z" fill-rule="evenodd"/><path fill="#414141" d="m1028.5354 -368.85828l64.28345 54.70868l-64.28345 54.70865z" fill-rule="evenodd"/><path fill="#414141" d="m1028.5354 -245.90552l64.28345 54.708664l-64.28345 54.708664z" fill-rule="evenodd"/><path fill="#414141" d="m1028.5354 -122.95276l64.28345 54.708664l-64.28345 54.708664z" fill-rule="evenodd"/><path fill="#616161" d="m1092.8188 -799.55646l-64.28345 54.70868l64.28345 54.70868z" fill-rule="evenodd"/><path fill="#616161" d="m1092.8188 -676.6037l-64.28345 54.70868l64.28345 54.70868z" fill-rule="evenodd"/><path fill="#616161" d="m1092.8188 -553.65094l-64.28345 54.70868l64.28345 54.70868z" fill-rule="evenodd"/><path fill="#616161" d="m1092.8188 -430.69815l-64.28345 54.70865l64.28345 54.70865z" fill-rule="evenodd"/><path fill="#616161" d="m1092.8188 -307.7454l-64.28345 54.70865l64.28345 54.708664z" fill-rule="evenodd"/><path fill="#616161" d="m1092.8188 -184.79265l-64.28345 54.708664l64.28345 54.708656z" fill-rule="evenodd"/><path fill="#616161" d="m1092.8188 -61.839893l-64.28345 54.70866l64.28345 54.70866z" fill-rule="evenodd"/><path fill="#414141" d="m1092.8188 -799.55646l64.28357 54.70868l-64.28357 54.70868z" fill-rule="evenodd"/><path fill="#414141" d="m1092.8188 -676.6037l64.28357 54.70868l-64.28357 54.70868z" fill-rule="evenodd"/><path fill="#414141" d="m1092.8188 -553.65094l64.28357 54.70868l-64.28357 54.70868z" fill-rule="evenodd"/><path fill="#414141" d="m1092.8188 -430.69815l64.28357 54.70865l-64.28357 54.70865z" fill-rule="evenodd"/><path fill="#414141" d="m1092.8188 -307.7454l64.28357 54.70865l-64.28357 54.708664z" fill-rule="evenodd"/><path fill="#414141" d="m1092.8188 -184.79265l64.28357 54.708664l-64.28357 54.708656z" fill-rule="evenodd"/><path fill="#414141" d="m1092.8188 -61.839893l64.28357 54.70866l-64.28357 54.70866z" fill-rule="evenodd"/><path fill="#616161" d="m1157.1024 -738.44354l-64.28357 54.70862l64.28357 54.70868z" fill-rule="evenodd"/><path fill="#616161" d="m1157.1024 -615.4908l-64.28357 54.70862l64.28357 54.70868z" fill-rule="evenodd"/><path fill="#616161" d="m1157.1024 -492.53806l-64.28357 54.70865l64.28357 54.70868z" fill-rule="evenodd"/><path fill="#616161" d="m1157.1024 -369.5853l-64.28357 54.70865l64.28357 54.70868z" fill-rule="evenodd"/><path fill="#616161" d="m1157.1024 -246.63255l-64.28357 54.708664l64.28357 54.708664z" fill-rule="evenodd"/><path fill="#616161" d="m1157.1024 -123.67979l-64.28357 54.708656l64.28357 54.708664z" fill-rule="evenodd"/><path fill="#616161" d="m1157.1024 -0.7270341l-64.28357 54.708664l64.28357 54.708664z" fill-rule="evenodd"/><path fill="#414141" d="m899.9685 -860.6693l64.28345 54.70868l-64.28345 54.70868z" fill-rule="evenodd"/><path fill="#414141" d="m899.9685 -737.71655l64.28345 54.70868l-64.28345 54.70868z" fill-rule="evenodd"/><path fill="#414141" d="m899.9685 -614.7638l64.28345 54.70868l-64.28345 54.70865z" fill-rule="evenodd"/><path fill="#414141" d="m899.9685 -491.81104l64.28345 54.70868l-64.28345 54.70865z" fill-rule="evenodd"/><path fill="#414141" d="m899.9685 -368.85828l64.28345 54.70868l-64.28345 54.70865z" fill-rule="evenodd"/><path fill="#414141" d="m899.9685 -245.90552l64.28345 54.708664l-64.28345 54.708664z" fill-rule="evenodd"/><path fill="#414141" d="m899.9685 -122.95276l64.28345 54.708664l-64.28345 54.708664z" fill-rule="evenodd"/><path fill="#616161" d="m964.25195 -799.55646l-64.28345 54.70868l64.28345 54.70868z" fill-rule="evenodd"/><path fill="#616161" d="m964.25195 -676.6037l-64.28345 54.70868l64.28345 54.70868z" fill-rule="evenodd"/><path fill="#616161" d="m964.25195 -553.65094l-64.28345 54.70868l64.28345 54.70868z" fill-rule="evenodd"/><path fill="#616161" d="m964.25195 -430.69815l-64.28345 54.70865l64.28345 54.70865z" fill-rule="evenodd"/><path fill="#616161" d="m964.25195 -307.7454l-64.28345 54.70865l64.28345 54.708664z" fill-rule="evenodd"/><path fill="#616161" d="m964.25195 -184.79265l-64.28345 54.708664l64.28345 54.708656z" fill-rule="evenodd"/><path fill="#616161" d="m964.25195 -61.839893l-64.28345 54.70866l64.28345 54.70866z" fill-rule="evenodd"/><path fill="#414141" d="m964.25195 -799.55646l64.28345 54.70868l-64.28345 54.70868z" fill-rule="evenodd"/><path fill="#414141" d="m964.25195 -676.6037l64.28345 54.70868l-64.28345 54.70868z" fill-rule="evenodd"/><path fill="#414141" d="m964.25195 -553.65094l64.28345 54.70868l-64.28345 54.70868z" fill-rule="evenodd"/><path fill="#414141" d="m964.25195 -430.69815l64.28345 54.70865l-64.28345 54.70865z" fill-rule="evenodd"/><path fill="#414141" d="m964.25195 -307.7454l64.28345 54.70865l-64.28345 54.708664z" fill-rule="evenodd"/><path fill="#414141" d="m964.25195 -184.79265l64.28345 54.708664l-64.28345 54.708656z" fill-rule="evenodd"/><path fill="#414141" d="m964.25195 -61.839893l64.28345 54.70866l-64.28345 54.70866z" fill-rule="evenodd"/><path fill="#616161" d="m1028.5354 -738.44354l-64.28345 54.70862l64.28345 54.70868z" fill-rule="evenodd"/><path fill="#616161" d="m1028.5354 -615.4908l-64.28345 54.70862l64.28345 54.70868z" fill-rule="evenodd"/><path fill="#616161" d="m1028.5354 -492.53806l-64.28345 54.70865l64.28345 54.70868z" fill-rule="evenodd"/><path fill="#616161" d="m1028.5354 -369.5853l-64.28345 54.70865l64.28345 54.70868z" fill-rule="evenodd"/><path fill="#616161" d="m1028.5354 -246.63255l-64.28345 54.708664l64.28345 54.708664z" fill-rule="evenodd"/><path fill="#616161" d="m1028.5354 -123.67979l-64.28345 54.708656l64.28345 54.708664z" fill-rule="evenodd"/><path fill="#616161" d="m1028.5354 -0.7270341l-64.28345 54.708664l64.28345 54.708664z" fill-rule="evenodd"/></g></svg>